<svg width="48" height="48" viewBox="0 0 48 48" fill="none" xmlns="http://www.w3.org/2000/svg">
<path d="M28.3172 34.5465C28.1037 34.0126 27.5866 33.6625 27.0116 33.6625H4.41936C3.84441 33.6625 3.32768 34.0126 3.11382 34.5465L0.101734 42.0776C-0.267406 43.0008 0.413745 44.0061 1.40727 44.0061H30.0237C31.018 44.0061 31.6984 43.0005 31.3292 42.0776L28.3172 34.5465Z" fill="#E3FF04"/>
<path d="M39.0628 33.6625C37.6493 33.6625 36.4382 34.2543 35.7395 35.2863C34.9924 36.3896 34.9045 37.8732 35.4978 39.3567C36.5407 41.9637 39.4298 44.0061 42.0753 44.0061C43.4885 44.0061 44.6999 43.4143 45.3983 42.3827C46.1453 41.2793 46.2336 39.7958 45.6403 38.3123C44.5974 35.7048 41.7083 33.6625 39.0628 33.6625Z" fill="#E3FF04"/>
<path d="M34.2432 29.4437C34.2432 30.2204 34.873 30.85 35.6494 30.85H46.5932C47.37 30.85 47.9995 30.2204 47.9995 29.4437V12.7749H34.2432V29.4437ZM41.1213 22.5655C41.8977 22.5655 42.5276 23.1958 42.5276 23.9718C42.5276 24.7482 41.8977 25.378 41.1213 25.378C40.345 25.378 39.7151 24.7482 39.7151 23.9718C39.7151 23.1958 40.345 22.5655 41.1213 22.5655Z" fill="#E3FF04"/>
<path d="M46.5932 3.93753H35.6494C34.873 3.93753 34.2432 4.56705 34.2432 5.34378V9.96243H47.9995V5.34378C47.9995 4.56705 47.37 3.93753 46.5932 3.93753Z" fill="#E3FF04"/>
<path d="M30.0249 3.93753H1.40625C0.629516 3.93753 0 4.56705 0 5.34378V18.1937H31.4311V5.34378C31.4311 4.56705 30.8016 3.93753 30.0249 3.93753Z" fill="#E3FF04"/>
<path d="M0 22.4125C0 23.1892 0.629516 23.8187 1.40625 23.8187H30.0249C30.8016 23.8187 31.4311 23.1892 31.4311 22.4125V21.0062H0V22.4125Z" fill="#E3FF04"/>
<path d="M10.5441 26.6312V28.0375H8.9375C8.16113 28.0375 7.53125 28.6674 7.53125 29.4437C7.53125 30.2205 8.16113 30.85 8.9375 30.85H22.4939C23.2706 30.85 23.9001 30.2205 23.9001 29.4437C23.9001 28.6674 23.2706 28.0375 22.4939 28.0375H20.8877V26.6312H10.5441Z" fill="#E3FF04"/>
</svg>
