<svg width="48" height="48" viewBox="0 0 48 48" fill="none" xmlns="http://www.w3.org/2000/svg">
<g clip-path="url(#clip0_298_2021)">
<path d="M7.6311 19.4374C7.6311 21.1564 6.23767 22.5498 4.51868 22.5498C2.79968 22.5498 1.40625 21.1564 1.40625 19.4374C1.40625 17.7184 2.79968 16.325 4.51868 16.325C6.23767 16.325 7.6311 17.7184 7.6311 19.4374Z" fill="#E3FF04"/>
<path d="M11.8496 10.5H36.1499V37.4125H11.8496V10.5Z" fill="#E3FF04"/>
<path d="M4.51868 25.3623C2.70923 25.3623 1.08765 24.546 0 23.2635V32.9938C0 35.4236 1.96436 37.4125 4.4187 37.4125H9.03735V23.2635C7.94971 24.546 6.32812 25.3623 4.51868 25.3623Z" fill="#E3FF04"/>
<path d="M0 14.9187V15.6112C1.08765 14.3287 2.70923 13.5125 4.51868 13.5125C6.32812 13.5125 7.94971 14.3287 9.03735 15.6112V10.5H4.4187C1.94751 10.5 0 12.5072 0 14.9187Z" fill="#E3FF04"/>
<path d="M48.0002 32.9938V32.3013C46.9126 33.5837 45.291 34.4 43.4816 34.4C41.6721 34.4 40.0505 33.5837 38.9629 32.3013V37.4125H43.5815C46.0527 37.4125 48.0002 35.4053 48.0002 32.9938Z" fill="#E3FF04"/>
<path d="M48.0002 24.6489V14.9187C48.0002 12.4889 46.0359 10.5 43.5815 10.5H38.9629V24.6489C40.0505 23.3661 41.6721 22.5498 43.4816 22.5498C45.291 22.5498 46.9126 23.3661 48.0002 24.6489Z" fill="#E3FF04"/>
<path d="M46.594 28.4751C46.594 30.1941 45.2006 31.5875 43.4816 31.5875C41.7626 31.5875 40.3691 30.1941 40.3691 28.4751C40.3691 26.7561 41.7626 25.3623 43.4816 25.3623C45.2006 25.3623 46.594 26.7561 46.594 28.4751Z" fill="#E3FF04"/>
</g>
<defs>
<clipPath id="clip0_298_2021">
<rect width="48" height="48" fill="white"/>
</clipPath>
</defs>
</svg>
