<svg width="48" height="48" viewBox="0 0 48 48" fill="none" xmlns="http://www.w3.org/2000/svg">
<g clip-path="url(#clip0_298_323)">
<path d="M34.5444 20.8499C32.828 20.8499 31.4316 22.2462 31.4316 23.9626C31.4316 25.6787 32.828 27.0751 34.5444 27.0751C36.2605 27.0751 37.6569 25.6787 37.6569 23.9626C37.6569 22.2462 36.2605 20.8499 34.5444 20.8499Z" fill="#E3FF04"/>
<path d="M13.4562 20.8499C11.7401 20.8499 10.3438 22.2462 10.3438 23.9626C10.3438 25.6787 11.7401 27.0751 13.4562 27.0751C15.1726 27.0751 16.569 25.6787 16.569 23.9626C16.569 22.2462 15.1726 20.8499 13.4562 20.8499Z" fill="#E3FF04"/>
<path d="M42.0751 9H5.92493C2.69238 9 0 11.6162 0 14.9249V33C0 36.3219 2.70447 38.9249 5.92493 38.9249H14.5935C16.1748 38.9249 17.6638 38.3097 18.7892 37.1895L21.8038 34.1748C22.3788 33.5966 23.1793 33.2651 24 33.2651C24.8207 33.2651 25.6212 33.5966 26.2009 34.1796L29.2137 37.192C30.3362 38.3097 31.8252 38.9249 33.4065 38.9249H42.0751C45.3076 38.9249 48 36.3087 48 33V14.9249C48 11.603 45.2955 9 42.0751 9ZM13.4561 29.8876C10.1891 29.8876 7.53113 27.2296 7.53113 23.9626C7.53113 20.6957 10.1891 18.0374 13.4561 18.0374C16.7234 18.0374 19.3813 20.6957 19.3813 23.9626C19.3813 27.2296 16.7234 29.8876 13.4561 29.8876ZM34.5439 29.8876C31.2766 29.8876 28.6187 27.2296 28.6187 23.9626C28.6187 20.6957 31.2766 18.0374 34.5439 18.0374C37.8109 18.0374 40.4689 20.6957 40.4689 23.9626C40.4689 27.2296 37.8109 29.8876 34.5439 29.8876Z" fill="#E3FF04"/>
</g>
<defs>
<clipPath id="clip0_298_323">
<rect width="48" height="48" fill="white"/>
</clipPath>
</defs>
</svg>
