<svg width="48" height="48" viewBox="0 0 48 48" fill="none" xmlns="http://www.w3.org/2000/svg">
<g clip-path="url(#clip0_298_1641)">
<path fill-rule="evenodd" clip-rule="evenodd" d="M25.4062 1.22974C25.4062 1.26892 25.4041 1.30811 25.4033 1.34729C25.4041 1.36707 25.4062 1.38647 25.4062 1.40625V1.22974Z" fill="#E3FF04"/>
<path fill-rule="evenodd" clip-rule="evenodd" d="M17.9753 12.4266H30.0251C30.9136 12.4266 31.6313 13.1462 31.6313 14.0328C31.6313 14.9187 30.9147 15.639 30.0251 15.639H27.0127C24.5441 15.639 22.594 17.6433 22.594 20.0577V21.2875H25.4065V20.0577C25.4065 19.1711 26.1243 18.4515 27.0127 18.4515H30.0251C32.4941 18.4515 34.4438 16.4469 34.4438 14.0328C34.4438 11.5704 32.4462 9.61414 30.0251 9.61414H17.9753C17.0869 9.61414 16.3691 8.89453 16.3691 8.00793C16.3691 7.12207 17.0858 6.40173 17.9753 6.40173H20.2345C23.047 6.40173 25.3406 4.14478 25.4036 1.34729C25.3724 0.598022 24.7568 0 24.0002 0C23.2235 0 22.594 0.629517 22.594 1.40625V1.22974C22.594 2.53052 21.5356 3.58923 20.2345 3.58923H17.9753C15.5067 3.58923 13.5566 5.59351 13.5566 8.00793C13.5566 10.4722 15.5565 12.4266 17.9753 12.4266Z" fill="#E3FF04"/>
<path fill-rule="evenodd" clip-rule="evenodd" d="M36.0498 24.1H11.9502C5.36096 24.1 0 29.4606 0 36.0498C0 42.639 5.36096 48 11.9502 48C14.2522 48 16.4886 47.3423 18.4171 46.0983C20.0383 45.0524 21.3768 43.6384 22.3282 41.9751H25.6718C26.6232 43.6384 27.9617 45.0524 29.5829 46.0983C31.5114 47.3423 33.7478 48 36.0498 48C42.639 48 48 42.639 48 36.0498C48 29.4606 42.639 24.1 36.0498 24.1ZM14.9626 37.4561H13.3564V39.0623C13.3564 39.839 12.7266 40.4685 11.9502 40.4685C11.1735 40.4685 10.5439 39.839 10.5439 39.0623V37.4561H8.93738C8.16101 37.4561 7.53113 36.8265 7.53113 36.0498C7.53113 35.2734 8.16101 34.6436 8.93738 34.6436H10.5436V33.0374C10.5436 32.261 11.1735 31.6311 11.9498 31.6311C12.7266 31.6311 13.3561 32.261 13.3561 33.0374V34.6436H14.9626C15.739 34.6436 16.3689 35.2734 16.3689 36.0498C16.3689 36.8265 15.739 37.4561 14.9626 37.4561ZM32.2844 37.4561C31.5084 37.4561 30.8782 36.8262 30.8782 36.0498C30.8782 35.2738 31.5084 34.6436 32.2844 34.6436C33.0604 34.6436 33.6907 35.2738 33.6907 36.0498C33.6907 36.8262 33.0604 37.4561 32.2844 37.4561ZM36.0498 41.2218C35.2738 41.2218 34.6436 40.5919 34.6436 39.8156C34.6436 39.0396 35.2738 38.4093 36.0498 38.4093C36.8262 38.4093 37.4561 39.0396 37.4561 39.8156C37.4561 40.5919 36.8262 41.2218 36.0498 41.2218ZM36.0498 33.6907C35.2738 33.6907 34.6436 33.0608 34.6436 32.2844C34.6436 31.5081 35.2738 30.8782 36.0498 30.8782C36.8262 30.8782 37.4561 31.5081 37.4561 32.2844C37.4561 33.0608 36.8262 33.6907 36.0498 33.6907ZM39.8156 37.4561C39.0396 37.4561 38.4093 36.8262 38.4093 36.0498C38.4093 35.2738 39.0396 34.6436 39.8156 34.6436C40.5919 34.6436 41.2218 35.2738 41.2218 36.0498C41.2218 36.8262 40.5919 37.4561 39.8156 37.4561Z" fill="#E3FF04"/>
</g>
<defs>
<clipPath id="clip0_298_1641">
<rect width="48" height="48" fill="white"/>
</clipPath>
</defs>
</svg>
