<svg width="39" height="40" viewBox="0 0 39 40" fill="none" xmlns="http://www.w3.org/2000/svg">
<path d="M12.7222 18.1361C16.6463 22.0728 20.3131 25.6371 23.844 29.3333C25.8458 31.4271 26.032 34.3723 24.618 36.8322C23.2876 39.1499 20.5683 40.3778 17.8407 39.8967C15.2302 39.4365 12.8958 37.2924 12.7828 34.5041C12.5695 29.2015 12.7201 23.8843 12.7201 18.1361H12.7222Z" fill="#E3FF04"/>
<path d="M25.4755 21.6168C21.5221 17.7366 17.6669 14.1345 14.0398 10.3171C12.1447 8.32365 12.1991 5.2132 13.68 2.93319C15.1652 0.644806 17.92 -0.455457 20.5808 0.176254C23.2226 0.803781 25.3667 3.03777 25.4378 5.76333C25.5738 10.9739 25.4776 16.1908 25.4776 21.6168H25.4755Z" fill="#E3FF04"/>
<path d="M0 6.51013H6.18742V33.5001H0V6.51013Z" fill="#E3FF04"/>
<path d="M31.9661 6.51013H38.1807V33.4541H31.9661V6.51013Z" fill="#E3FF04"/>
</svg>
