<svg width="55" height="40" viewBox="0 0 55 40" fill="none" xmlns="http://www.w3.org/2000/svg">
<path d="M34.0663 39.8202C27.5652 33.3007 20.9143 26.629 14.291 19.9873C16.1583 18.1315 18.0994 16.2043 20.1604 14.1548C24.7711 18.8185 29.4348 23.5376 34.0501 28.2059C36.8672 25.3841 39.6014 22.6431 42.3655 19.8744C37.7064 15.2406 33.0035 10.5654 28.349 5.93626C30.4077 3.87067 32.3395 1.93419 34.2253 0.0415039C40.8255 6.65553 47.481 13.3249 54.0305 19.8882C47.4465 26.4607 40.7425 33.1508 34.0616 39.8179L34.0663 39.8202Z" fill="#E3FF04"/>
<path d="M19.9481 40C13.2465 33.2891 6.58636 26.6221 0 20.0288C6.65322 13.3733 13.3364 6.6901 20.0242 0C26.5898 6.60481 33.2338 13.2857 39.8455 19.9366C37.9759 21.7717 36.0233 23.6874 34.0176 25.6562C29.4738 21.0754 24.8032 16.3656 20.1533 11.6766C17.2854 14.5652 14.5582 17.3131 11.8103 20.0818C16.4325 24.7064 21.1377 29.4139 25.8175 34.0983C23.7842 36.1432 21.8754 38.0612 19.9458 40H19.9481Z" fill="#E3FF04"/>
</svg>
