<svg width="40" height="40" viewBox="0 0 40 40" fill="none" xmlns="http://www.w3.org/2000/svg">
<path d="M34.1327 0C34.3828 0.175325 34.6271 0.299424 34.8123 0.484599C36.3804 2.06647 37.9406 3.65622 39.4968 5.24991C40.072 5.83892 40.0642 6.10879 39.4751 6.71159C36.079 10.1728 32.6887 13.6419 29.2728 17.0834C28.7094 17.6507 28.536 18.2634 28.4375 19.0435C28.1539 21.2715 28.9615 22.8593 30.6005 24.386C33.654 27.2306 36.4907 30.3056 39.4141 33.2881C40.0898 33.9776 40.0917 34.2081 39.4101 34.9055C37.8874 36.4657 36.3587 38.0219 34.8261 39.5742C34.2666 40.1396 33.9849 40.1436 33.4254 39.5762C29.6175 35.7072 25.8037 31.8422 22.0293 27.9397C21.6984 27.597 21.4679 27.0001 21.4639 26.5194C21.4206 22.2033 21.4167 17.8871 21.4639 13.571C21.4698 13.0726 21.722 12.4579 22.0687 12.0974C25.8411 8.19301 29.655 4.32796 33.4648 0.458989C33.6343 0.287603 33.8667 0.179265 34.1346 0H34.1327Z" fill="#E3FF04"/>
<path d="M18.4678 20.0797C18.4678 22.1914 18.4579 24.3032 18.4737 26.413C18.4796 27.0552 18.2865 27.5733 17.8295 28.0343C14.0511 31.8658 10.2826 35.7112 6.51018 39.5486C5.93102 40.1376 5.64538 40.1376 5.0603 39.5447C3.52965 37.9924 2.00098 36.4361 0.476239 34.8759C-0.162024 34.2219 -0.156113 33.9599 0.478209 33.3118C3.90591 29.819 7.32968 26.3204 10.7712 22.8395C11.2459 22.3589 11.3819 21.825 11.4725 21.173C11.7955 18.8543 10.9445 17.1779 9.22674 15.5862C6.21666 12.8007 3.4351 9.76697 0.558977 6.83766C-0.191572 6.07332 -0.183693 5.84678 0.584586 5.06865C2.0522 3.58331 3.50996 2.09009 4.97559 0.602777C5.6572 -0.0886739 5.90738 -0.0945789 6.57519 0.583082C10.3319 4.40281 14.1004 8.21466 17.8216 12.0698C18.1801 12.4422 18.4185 13.0824 18.4362 13.6064C18.5052 15.7615 18.4638 17.9206 18.4658 20.0797H18.4678Z" fill="#E3FF04"/>
</svg>
