<svg width="44" height="40" viewBox="0 0 44 40" fill="none" xmlns="http://www.w3.org/2000/svg">
<path d="M6.68677 27.1652C11.6105 18.0771 16.4263 9.18932 21.4051 0C26.5467 9.16951 31.5519 18.0969 36.6407 27.1696C34.6751 28.1843 32.78 29.1615 30.8872 30.141C28.0742 31.5959 25.2701 33.0684 22.4374 34.4836C21.9906 34.7059 21.284 34.8974 20.9077 34.7015C16.2459 32.2848 11.6215 29.7932 6.68897 27.163L6.68677 27.1652ZM26.769 23.2891C25.1293 20.3618 23.5885 17.6171 21.9267 14.6479C20.2253 17.6149 18.6384 20.3816 16.9744 23.2803C18.5658 24.152 20.0184 24.9774 21.5041 25.7323C21.7573 25.86 22.2107 25.7939 22.4858 25.6509C23.8813 24.9201 25.2481 24.1365 26.7712 23.2891H26.769Z" fill="#E3FF04"/>
<path d="M0 39.9949C1.97213 36.5217 3.77919 33.3368 5.64786 30.0419C7.86651 31.2348 10.0081 32.3838 12.2664 33.5965C11.2671 35.5797 10.3317 37.4924 9.33019 39.3698C9.17392 39.6626 8.7161 39.9619 8.39255 39.9685C5.69848 40.017 3.00221 39.9949 0 39.9949Z" fill="#E3FF04"/>
<path d="M43.5606 39.5373C40.5474 39.5373 37.8467 39.5571 35.1482 39.5109C34.8247 39.5043 34.3757 39.2181 34.2062 38.9298C33.1189 37.0919 32.0954 35.2166 30.9839 33.2357C33.35 32.0603 35.6149 30.9334 37.9964 29.7493C39.8276 32.9694 41.6083 36.1014 43.5606 39.5373Z" fill="#E3FF04"/>
<path d="M26.769 23.2892C25.2459 24.1366 23.879 24.9202 22.4836 25.6509C22.2106 25.794 21.755 25.8622 21.5019 25.7324C20.0162 24.9774 18.5635 24.152 16.9722 23.2804C18.6362 20.3816 20.2209 17.6149 21.9245 14.6479C23.5885 17.6171 25.127 20.3618 26.7668 23.2892H26.769Z" fill="#E3FF04"/>
</svg>
