<svg width="60" height="60" viewBox="0 0 60 60" fill="none" xmlns="http://www.w3.org/2000/svg">
<g clip-path="url(#clip0_28_457)">
<path d="M22.4689 31.7267C21.3616 31.7267 20.4612 32.6276 20.4612 33.7344C20.4612 34.8418 21.3616 35.7422 22.4689 35.7422C23.5758 35.7422 24.4767 34.8418 24.4767 33.7344C24.4767 32.6276 23.5758 31.7267 22.4689 31.7267Z" fill="#E3FF04"/>
<path d="M22.4689 24.1956C21.3616 24.1956 20.4612 25.096 20.4612 26.2033C20.4612 27.3102 21.3616 28.2111 22.4689 28.2111C23.5758 28.2111 24.4767 27.3102 24.4767 26.2033C24.4767 25.096 23.5758 24.1956 22.4689 24.1956Z" fill="#E3FF04"/>
<path d="M22.4688 18.5468C16.1704 18.5468 11.0466 23.671 11.0466 29.9689C11.0466 36.2668 16.1704 41.3905 22.4688 41.3905C28.7667 41.3905 33.8904 36.2668 33.8904 29.9689C33.8904 23.671 28.7667 18.5468 22.4688 18.5468ZM27.9921 33.7344C27.9921 36.7799 25.5143 39.2578 22.4688 39.2578C19.4232 39.2578 16.9454 36.7799 16.9454 33.7344C16.9454 32.2801 17.5112 30.9563 18.4331 29.9689C17.5112 28.9815 16.9454 27.6576 16.9454 26.2033C16.9454 23.1573 19.4228 20.6799 22.4688 20.6799C25.5143 20.6799 27.9921 23.1573 27.9921 26.2033C27.9921 27.6576 27.4259 28.9815 26.5044 29.9689C27.4263 30.9563 27.9921 32.2801 27.9921 33.7344Z" fill="#E3FF04"/>
<path d="M44.9377 29.9689C44.9377 17.5795 34.8582 7.5 22.4689 7.5C10.0795 7.5 0 17.5795 0 29.9689C0 42.3582 10.0795 52.4377 22.4689 52.4377C34.8578 52.4377 44.9377 42.3582 44.9377 29.9689ZM22.4689 44.9062C14.2323 44.9062 7.53113 38.2054 7.53113 29.9689C7.53113 21.7323 14.2323 15.0311 22.4689 15.0311C30.7054 15.0311 37.4062 21.7323 37.4062 29.9689C37.4062 38.2054 30.7054 44.9062 22.4689 44.9062Z" fill="#E3FF04"/>
<path d="M57.8544 20.3933C56.3763 22.8616 55.4841 26.3502 55.4841 29.9688C55.4841 33.5874 56.3763 37.076 57.8544 39.5443C59.2296 36.638 60 33.392 60 29.9688C60 26.5457 59.2296 23.2997 57.8544 20.3933Z" fill="#E3FF04"/>
<path d="M55.9016 17.0467C51.8307 11.2766 45.114 7.5 37.5311 7.5C36.8953 7.5 36.2654 7.52792 35.6428 7.58011C43.303 12.1051 48.4533 20.446 48.4533 29.9689C48.4533 39.4917 43.303 47.8326 35.6428 52.3576C36.2658 52.4094 36.8953 52.4377 37.5311 52.4377C45.114 52.4377 51.8307 48.6612 55.9016 42.8911C53.448 39.7966 51.969 35.0208 51.969 29.9689C51.969 24.9165 53.4475 20.1411 55.9016 17.0467Z" fill="#E3FF04"/>
</g>
<defs>
<clipPath id="clip0_28_457">
<rect width="60" height="60" fill="white"/>
</clipPath>
</defs>
</svg>
