<svg width="60" height="60" viewBox="0 0 60 60" fill="none" xmlns="http://www.w3.org/2000/svg">
<g clip-path="url(#clip0_28_464)">
<path d="M30.0001 39.5388C35.2593 39.5388 39.5389 35.2592 39.5389 29.9999C39.5389 24.7407 35.2593 20.4611 30.0001 20.4611C24.7408 20.4611 20.4612 24.7407 20.4612 29.9999C20.4612 35.2592 24.7408 39.5388 30.0001 39.5388ZM30.0001 24.477C33.0456 24.477 35.523 26.9544 35.523 29.9999C35.523 33.0454 33.0456 35.5229 30.0001 35.5229C26.9546 35.5229 24.4771 33.0454 24.4771 29.9999C24.4771 26.9544 26.9546 24.477 30.0001 24.477Z" fill="#E3FF04"/>
<path d="M55.122 43.0234L41.9961 35.1476C40.6754 38.2132 38.2131 40.6755 35.1475 41.9962L43.0233 55.1221C43.52 55.9497 44.5985 56.2285 45.4371 55.7241C49.638 53.1954 53.1948 49.6381 55.7239 45.4372C56.2243 44.6054 55.9551 43.5233 55.122 43.0234Z" fill="#E3FF04"/>
<path d="M31.6228 42.9537C31.0909 43.0201 30.5493 43.0549 30 43.0549C22.8017 43.0549 16.9455 37.1983 16.9455 29.9999C16.9455 29.4506 16.9798 28.9091 17.0462 28.3776L3.06931 19.9914C2.6825 19.7593 2.33231 19.4828 2.02332 19.1702C0.717773 22.5311 0 26.1831 0 29.9999C0 46.5421 13.4578 59.9999 30 59.9999C33.8187 59.9999 37.4721 59.2812 40.8344 57.9748C40.5194 57.6658 40.2402 57.3165 40.009 56.9311L31.6228 42.9537Z" fill="#E3FF04"/>
<path d="M29.9999 0C26.1812 0 22.5278 0.718689 19.1655 2.02515C19.4805 2.33368 19.7597 2.68341 19.9909 3.06885L28.3771 17.0462C28.909 16.9798 29.4506 16.945 29.9999 16.945C37.1982 16.945 43.0544 22.8017 43.0544 30C43.0544 30.5493 43.0201 31.0908 42.9537 31.6223L56.9306 40.0085C57.3174 40.2406 57.6676 40.5171 57.9766 40.8298C59.2821 37.4689 59.9999 33.8168 59.9999 30C59.9999 13.4578 46.5421 0 29.9999 0Z" fill="#E3FF04"/>
<path d="M4.87792 16.9766L18.0038 24.8524C19.3245 21.7868 21.7868 19.3245 24.8524 18.0038L16.9766 4.8779C16.4772 4.04523 15.3955 3.77515 14.5628 4.2764C10.3619 6.80508 6.80511 10.3619 4.27642 14.5628C3.77563 15.3946 4.04479 16.4767 4.87792 16.9766Z" fill="#E3FF04"/>
</g>
<defs>
<clipPath id="clip0_28_464">
<rect width="60" height="60" fill="white"/>
</clipPath>
</defs>
</svg>
