<svg width="60" height="60" viewBox="0 0 60 60" fill="none" xmlns="http://www.w3.org/2000/svg">
<g clip-path="url(#clip0_49_43)">
<path d="M58.4856 50.3311C58.4856 50.3311 54.4838 46.3307 52.0778 43.926L43.9434 52.0605L50.3534 58.4678C53.2337 61.3563 56.9709 59.506 58.2444 58.2284C60.1825 56.3081 60.8577 52.7105 58.4888 50.3343C58.4879 50.3333 58.487 50.3324 58.4856 50.3311Z" fill="#E3FF04"/>
<path d="M50.6717 33.2803C48.7166 31.3252 45.5466 31.3252 43.5915 33.2803L33.2991 43.5726C31.344 45.5278 31.344 48.6978 33.2991 50.6529C35.2542 52.608 38.4238 52.608 40.3789 50.6529L50.6717 40.3601C52.6268 38.405 52.6268 35.2354 50.6717 33.2803Z" fill="#E3FF04"/>
<path d="M1.51429 50.3311C1.51292 50.3324 1.512 50.3333 1.51109 50.3338C-0.857841 52.7105 -0.18264 56.3076 1.75553 58.2284C3.02903 59.506 6.76621 61.3558 9.64646 58.4673L16.0565 52.06L7.92206 43.926C5.51606 46.3307 1.51429 50.3311 1.51429 50.3311Z" fill="#E3FF04"/>
<path d="M15.6143 27.5139L27.5139 15.6143L12.4145 0.514984C12.0854 0.184936 11.6382 0 11.1717 0H1.75781C0.786896 0 0 0.786896 0 1.75781V11.1717C0 11.6382 0.184936 12.0854 0.514984 12.4145L15.6143 27.5139Z" fill="#E3FF04"/>
<path d="M60.0001 11.1717V1.75781C60.0001 0.786896 59.2132 0 58.2423 0H48.8284C48.3619 0 47.9152 0.184936 47.5856 0.514984L18.1001 30L30.0001 41.9L59.4851 12.415C59.8152 12.0854 60.0001 11.6382 60.0001 11.1717Z" fill="#E3FF04"/>
<path d="M16.4086 33.2803C14.4535 31.3252 11.2835 31.3252 9.32839 33.2803C7.37328 35.2354 7.37328 38.405 9.32839 40.3601L19.6207 50.6529C21.5759 52.608 24.7459 52.608 26.701 50.6529C28.6561 48.6978 28.6561 45.5278 26.701 43.5726L16.4086 33.2803Z" fill="#E3FF04"/>
</g>
<defs>
<clipPath id="clip0_49_43">
<rect width="60" height="60" fill="white"/>
</clipPath>
</defs>
</svg>
