<svg width="61" height="61" viewBox="0 0 61 61" fill="none" xmlns="http://www.w3.org/2000/svg">
<g clip-path="url(#clip0_28_470)">
<path d="M54.8531 43.9803H37.9077C34.8622 43.9803 32.3843 46.4587 32.3843 49.5042V55.1525C32.3843 58.198 34.8622 60.6759 37.9077 60.6759H54.8531C57.8987 60.6759 60.3765 58.198 60.3765 55.1525V49.5042C60.3765 46.4587 57.8987 43.9803 54.8531 43.9803ZM41.2654 54.0859H41.1404V54.2109C41.1404 55.1818 40.3535 55.9687 39.3826 55.9687C38.4117 55.9687 37.6248 55.1818 37.6248 54.2109V54.0859H37.4998C36.5289 54.0859 35.742 53.299 35.742 52.3281C35.742 51.3577 36.5289 50.5703 37.4998 50.5703H37.6248V50.4453C37.6248 49.4744 38.4117 48.6875 39.3826 48.6875C40.3535 48.6875 41.1404 49.4744 41.1404 50.4453V50.5703H41.2654C42.2358 50.5703 43.0232 51.3572 43.0232 52.3281C43.0232 53.299 42.2358 54.0859 41.2654 54.0859ZM50.7585 54.0859C49.788 54.0859 49.0006 53.2986 49.0006 52.3281C49.0006 51.3581 49.788 50.5703 50.7585 50.5703C51.7285 50.5703 52.5163 51.3581 52.5163 52.3281C52.5163 53.2986 51.7285 54.0859 50.7585 54.0859ZM55.9985 54.0859C55.0285 54.0859 54.2407 53.2986 54.2407 52.3281C54.2407 51.3581 55.0285 50.5703 55.9985 50.5703C56.9689 50.5703 57.7563 51.3581 57.7563 52.3281C57.7563 53.2986 56.9689 54.0859 55.9985 54.0859Z" fill="#E3FF04"/>
<path d="M22.8453 43.9803H5.89984C2.85434 43.9803 0.376465 46.4587 0.376465 49.5042V55.1525C0.376465 58.198 2.85434 60.6759 5.89984 60.6759H22.8453C25.8908 60.6759 28.3687 58.198 28.3687 55.1525V49.5042C28.3687 46.4587 25.8908 43.9803 22.8453 43.9803ZM9.25708 54.0859H9.13257V54.2109C9.13257 55.1818 8.34521 55.9687 7.37476 55.9687C6.40384 55.9687 5.61694 55.1818 5.61694 54.2109V54.0859H5.49152C4.52106 54.0859 3.7337 53.299 3.7337 52.3281C3.7337 51.3577 4.52106 50.5703 5.49152 50.5703H5.61649V50.4453C5.61649 49.4744 6.40384 48.6875 7.3743 48.6875C8.34521 48.6875 9.13211 49.4744 9.13211 50.4453V50.5703H9.25708C10.228 50.5703 11.0149 51.3572 11.0149 52.3281C11.0149 53.299 10.228 54.0859 9.25708 54.0859ZM18.7502 54.0859C17.7802 54.0859 16.9924 53.2986 16.9924 52.3281C16.9924 51.3581 17.7802 50.5703 18.7502 50.5703C19.7206 50.5703 20.508 51.3581 20.508 52.3281C20.508 53.2986 19.7206 54.0859 18.7502 54.0859ZM23.9907 54.0859C23.0202 54.0859 22.2328 53.2986 22.2328 52.3281C22.2328 51.3581 23.0202 50.5703 23.9907 50.5703C24.9611 50.5703 25.7485 51.3581 25.7485 52.3281C25.7485 53.2986 24.9611 54.0859 23.9907 54.0859Z" fill="#E3FF04"/>
<path d="M58.6187 0.675903H51.5654L41.0332 11.2077C40.347 11.8943 39.2342 11.8943 38.5475 11.2077C37.8609 10.5215 37.8609 9.40866 38.5475 8.72202L46.5937 0.675903H2.13428C1.16336 0.675903 0.376465 1.4628 0.376465 2.43372V36.3242C0.376465 37.2952 1.16336 38.0821 2.13428 38.0821H9.1875L19.7197 27.5503C20.4059 26.8636 21.5187 26.8636 22.2054 27.5503C22.892 28.2365 22.892 29.3498 22.2054 30.0359L14.1593 38.0821H58.6187C59.5896 38.0821 60.3765 37.2952 60.3765 36.3242V2.43372C60.3765 1.4628 59.5896 0.675903 58.6187 0.675903ZM28.8393 20.3204C28.8393 20.7008 28.7162 21.0706 28.4877 21.3751L25.6633 25.1406C25.3315 25.5833 24.8105 25.8438 24.2571 25.8438C23.7041 25.8438 23.1832 25.5833 22.8508 25.1406L20.0269 21.3751C19.7985 21.0706 19.6753 20.7008 19.6753 20.3204V14.672C19.6753 13.7011 20.4622 12.9142 21.4331 12.9142C22.4041 12.9142 23.1909 13.7011 23.1909 14.672V19.7344L24.2571 21.1562L25.3237 19.7344V14.672C25.3237 13.7011 26.111 12.9142 27.0815 12.9142C28.0524 12.9142 28.8393 13.7011 28.8393 14.672V20.3204ZM37.312 25.8438H33.0759C32.105 25.8438 31.3181 25.0569 31.3181 24.0859C31.3181 23.1155 32.105 22.3281 33.0759 22.3281H37.312C37.6329 22.3281 37.9076 22.0699 37.9076 21.7326C37.9076 21.4039 37.6407 21.137 37.312 21.137H34.4881C32.2208 21.137 30.3765 19.2927 30.3765 17.0254C30.3765 14.754 32.2139 12.9142 34.4881 12.9142H38.7242C39.6947 12.9142 40.4821 13.7011 40.4821 14.672C40.4821 15.6429 39.6947 16.4298 38.7242 16.4298H34.4881C34.1603 16.4298 33.8921 16.6935 33.8921 17.0254C33.8921 17.3541 34.1594 17.6214 34.4881 17.6214H37.312C39.5789 17.6214 41.4232 19.4657 41.4232 21.7326C41.4232 24.0045 39.5862 25.8438 37.312 25.8438Z" fill="#E3FF04"/>
</g>
<defs>
<clipPath id="clip0_28_470">
<rect width="60" height="60" fill="white" transform="translate(0.376465 0.675903)"/>
</clipPath>
</defs>
</svg>
