<svg width="46" height="64" viewBox="0 0 46 64" fill="none" xmlns="http://www.w3.org/2000/svg">
<path d="M18.6404 0C18.6217 0.0106667 18.635 0.176 18.6884 0.381333C19.195 2.48 19.7417 4.83467 19.7417 4.91467C19.7417 4.976 19.0964 5.57333 18.307 6.248C17.5177 6.92267 16.6324 7.72 16.347 8.016L15.8804 8.50133H15.2217C11.1417 8.49067 7.0617 8.53867 2.98703 8.47467C1.4457 8.448 0.707031 9.56 0.707031 10.7413C0.725698 27.7653 0.725698 44.784 0.725698 61.808C0.725698 63.2533 1.48036 64 2.9337 64H43.0937C44.539 64 45.2937 63.2533 45.2937 61.8V10.7333C45.2937 9.24 44.5577 8.49867 43.0804 8.49867C38.7284 8.49867 34.3764 8.504 30.0244 8.48267H29.4697L28.0137 7.064C25.507 4.624 23.6937 3.184 20.6484 1.25067C19.9908 0.816593 19.3248 0.399565 18.6457 0H18.6404ZM21.187 3.6C21.267 3.58933 21.8057 3.93333 22.4404 4.4C24.8604 6.2254 27.0911 8.28907 29.099 10.56H29.1044C30.3444 11.9467 31.5124 13.3787 32.4857 14.8267C33.4377 16.24 34.979 18.9493 34.979 19.2C34.979 19.28 35.0244 19.3387 35.0777 19.3387C35.131 19.3387 35.299 18.8907 35.451 18.3413C35.7897 17.1413 35.787 17.1467 36.4857 19.416C37.499 22.7173 37.8457 25.032 37.8457 28.4293C37.8457 31.0747 37.7204 32.168 37.2324 34.0827C37.091 34.6293 37.0564 34.9307 37.139 34.9307C37.2084 34.9307 37.6297 34.8293 38.0777 34.7013C38.523 34.5733 38.9044 34.488 38.9257 34.5067C39.0004 34.5787 37.875 36.5147 37.0804 37.68C33.7577 42.5547 29.8324 45.44 25.459 46.2293C23.0137 46.6693 20.7577 46.496 18.499 45.7013C17.299 45.28 16.331 44.7733 14.771 43.7467C11.4377 41.56 8.88837 37.6347 7.62437 32.76C7.0537 30.5733 6.61636 27.224 6.61636 25.04V24L7.35503 25.1067C8.4297 26.7147 9.72837 28.352 9.83503 28.232C9.85103 28.2053 9.5577 27.6347 9.17636 26.9573C8.37103 25.528 8.36836 25.544 8.96303 23.2507C9.92836 19.5013 11.9284 15.6187 14.5844 12.3227C14.9657 11.848 15.6377 11.176 16.2217 10.5547C17.8297 8.83733 19.6617 7.03467 19.8004 7.168C19.827 7.19467 19.7737 7.504 19.6804 7.85333C19.323 9.16533 18.8004 11.4053 18.8457 11.448C18.8564 11.4587 19.1817 10.872 19.371 10.552C19.563 10.2213 19.627 10.152 19.9124 9.63467C20.4724 8.62133 20.9524 7.768 20.9657 7.752C20.9817 7.73333 21.3177 8.05067 21.7124 8.456C22.3044 9.056 22.4324 9.13867 22.379 8.90133C22.3417 8.74133 22.051 7.50933 21.7257 6.16C21.4057 4.81067 21.1524 3.65867 21.1737 3.6C21.1737 3.59467 21.179 3.592 21.1844 3.592L21.187 3.6ZM32.067 10.5067H41.9604C42.9524 10.5067 43.267 10.8107 43.267 11.792V48.8587C43.267 49.8187 42.947 50.0773 41.779 50.0773H8.12036C6.7337 50.0773 5.34703 50.0827 3.96036 50.0773C3.08036 50.0693 2.75236 49.7413 2.75236 48.8827V11.76C2.75236 10.8453 3.07236 10.5147 3.97903 10.5147C7.09903 10.5093 10.2244 10.5147 13.347 10.5147C13.475 10.5147 13.6057 10.528 13.6564 10.5307H13.923L13.9044 10.5467L13.5364 10.9867C11.0084 14.0347 8.81636 18 7.78436 21.4187C7.64303 21.888 7.51236 22.272 7.49103 22.272C7.47503 22.272 6.93903 21.4987 6.3097 20.5653C5.6777 19.6267 5.11503 18.8267 5.05636 18.792C4.85903 18.6693 5.0297 27.5307 5.25636 29.184C6.0697 35.1093 8.06436 39.6533 11.3684 43.088C13.0217 44.8107 15.915 46.5813 18.3897 47.3867C22.0164 48.5707 26.043 48.2667 29.7764 46.5333C33.4297 44.832 37.0377 41.2187 39.659 36.632C40.635 34.92 42.1497 31.9867 42.0857 31.9227C42.059 31.896 41.4057 32.056 40.6404 32.2747C40.1726 32.4209 39.6983 32.5454 39.219 32.648C39.2215 32.3861 39.251 32.1252 39.307 31.8693C39.547 30.4453 39.5817 27.384 39.379 25.48C39.0217 22.1147 38.4617 19.9067 36.899 15.712C35.6537 12.3573 35.6377 12.3147 35.5657 12.3147C35.5284 12.3147 35.3204 12.9493 35.1044 13.7227C34.8857 14.496 34.6937 15.1253 34.6777 15.1253C34.559 14.9915 34.4569 14.8437 34.3737 14.6853C33.5568 13.4608 32.6921 12.2687 31.7817 11.112L31.3177 10.552H31.307H31.4324C31.6537 10.5387 31.8537 10.5173 32.0564 10.5173L32.067 10.5067ZM22.467 12.4L22.3817 13.024C22.3097 13.5573 21.835 15.3173 21.555 16.1093C21.427 16.4613 22.2484 15.656 22.7097 14.9733C22.923 14.6667 23.115 14.4133 23.1497 14.4133C23.187 14.4133 23.603 14.8053 24.083 15.2853C24.563 15.7653 24.971 16.1387 24.9897 16.12C25.0697 16.04 24.4297 14.7467 23.9844 14.0933C23.6876 13.6721 23.3577 13.2753 22.9977 12.9067L22.467 12.4ZM15.8537 17.5573L15.5017 17.8907C15.027 18.344 14.2084 19.5973 13.8217 20.4507C13.4217 21.336 12.9417 22.7173 12.947 22.9573C12.947 23.064 13.139 22.7973 13.3684 22.3653C13.7817 21.592 14.9764 20.04 15.155 20.04C15.2084 20.04 15.315 20.1813 15.395 20.36C15.555 20.712 16.355 21.832 16.403 21.7733C16.3877 21.486 16.3475 21.2005 16.283 20.92C16.203 20.4667 16.0964 19.68 16.0564 19.16C16.0239 18.7354 15.9768 18.312 15.915 17.8907L15.8537 17.5573ZM30.395 17.5787C30.3417 17.5787 30.2937 17.88 30.2884 18.2507C30.2884 18.8907 30.0297 20.9227 29.8697 21.5627C29.8004 21.848 29.8084 21.848 30.1044 21.5093C30.2724 21.312 30.547 20.9227 30.7177 20.6293C30.891 20.336 31.0457 20.0773 31.0697 20.0507C31.2137 19.8827 32.963 22.2267 33.1657 22.856C33.211 22.9947 33.2724 23.0773 33.307 23.0427C33.387 22.9627 32.8057 21.2107 32.4457 20.4427C31.9204 19.3227 30.675 17.5787 30.3977 17.5787H30.395ZM23.3817 20.512C23.275 20.528 22.651 21.8587 22.4537 22.5013C22.2324 23.2213 21.9684 25.1093 21.9737 25.9573V26.776L22.2617 25.6827C22.515 24.7013 22.9284 23.6613 23.235 23.2133C23.3284 23.08 23.467 23.152 23.9657 23.6C24.3044 23.904 24.6777 24.2053 24.7924 24.2667C25.019 24.3867 25.0857 24.2667 24.9044 24.0747C24.7524 23.9147 23.859 21.7947 23.651 21.096C23.5577 20.776 23.4377 20.5173 23.3844 20.5093L23.3817 20.512ZM16.4937 29.112C14.5604 29.1653 12.835 30.6933 12.299 32.9653C12.0644 33.9627 12.0804 34.7253 12.3577 35.7973C12.891 37.9093 14.1044 39.3227 15.9844 40.0373C16.2457 40.1387 16.7844 40.192 17.451 40.1707C18.3577 40.152 18.6057 40.0987 19.1844 39.8027C20.5444 39.1147 21.499 37.6693 21.7577 35.9013C21.8724 35.1067 21.8644 34.808 21.699 33.9813C21.2004 31.448 19.5337 29.6187 17.3257 29.1813C17.0484 29.128 16.7657 29.1013 16.491 29.112H16.4937ZM30.059 29.112C29.979 29.112 29.899 29.1173 29.819 29.1227C27.5604 29.2773 25.419 31.4107 24.9977 34.1413C24.6164 36.6213 25.8777 39.1813 27.859 39.9627C28.7764 40.3227 30.3337 40.2613 31.2644 39.8293C33.435 38.816 34.8777 36.0107 34.523 33.5013C34.203 31.224 32.7737 29.5707 30.7844 29.1813C30.5444 29.1361 30.3005 29.1147 30.0564 29.1173L30.059 29.112ZM28.6857 34.6053C29.699 34.6373 30.3177 35.8667 29.6617 36.7173C29.4057 37.0373 28.7604 37.2507 28.3017 37.144C26.9417 36.8507 27.0857 34.7973 28.4777 34.616C28.5467 34.6071 28.6162 34.6036 28.6857 34.6053ZM18.1044 34.632C18.6377 34.632 18.7444 34.6853 19.0484 35.0213C19.5604 35.5947 19.4884 36.6213 18.915 36.9253C18.4084 37.192 18.0297 37.2453 17.6697 37.0987C16.7897 36.7253 16.539 35.712 17.1577 35.0187C17.459 34.6827 17.571 34.6347 18.107 34.6347L18.1044 34.632ZM14.067 52.1147C14.7337 52.1147 15.395 52.12 16.0564 52.136C17.363 52.1627 17.8777 52.7227 17.8777 54.0347V57.1333H17.8697V60.1733C17.8617 61.2827 17.3577 61.8613 16.2484 61.896C14.8069 61.9413 13.3645 61.9413 11.923 61.896C10.8137 61.856 10.315 61.288 10.3017 60.168C10.2884 58.1013 10.2857 56.0347 10.3017 53.9707C10.3124 52.728 10.851 52.168 12.0777 52.1387C12.7444 52.1253 13.403 52.1173 14.0644 52.1173L14.067 52.1147ZM30.6804 52.1147C31.4537 52.12 32.219 52.1413 32.987 52.184C33.915 52.2373 34.4004 52.7973 34.411 53.7307C34.4457 55.9093 34.4537 58.0933 34.4217 60.2747C34.4084 61.3147 33.8617 61.848 32.8004 61.8853C31.3604 61.9387 29.9204 61.9387 28.4804 61.8853C27.339 61.8453 26.8644 61.272 26.8537 60.1093V57.016H26.8457C26.8457 55.976 26.835 54.9493 26.8457 53.912C26.8564 52.7973 27.2884 52.216 28.3737 52.1627C29.1417 52.128 29.9097 52.1093 30.6804 52.1173V52.1147ZM23.363 52.12C24.1364 52.12 24.9177 52.128 25.7097 52.128V53.8133H21.8377C21.011 53.8133 20.9497 53.8747 20.9497 54.72C20.9497 56.32 20.9657 57.92 20.9417 59.52C20.9337 60.0533 21.1417 60.2533 21.6617 60.2453C22.7924 60.2267 23.9204 60.2453 25.0537 60.2453H25.7657L25.7737 61.8533C25.6404 61.872 25.5124 61.9067 25.3844 61.9067C23.979 61.912 22.5737 61.92 21.171 61.9067C19.795 61.8933 19.2617 61.3467 19.2617 59.9813V54.008C19.2617 52.7387 19.787 52.1627 21.0484 52.1333C21.8217 52.1173 22.587 52.1173 23.363 52.12ZM40.1364 52.136C41.091 52.136 42.0564 52.1493 43.0324 52.1493V53.808H38.2484C37.555 53.808 37.4857 53.88 37.4857 54.5867C37.5017 56.5253 37.2137 56.2773 39.1924 56.2933C39.987 56.3013 40.7924 56.2853 41.587 56.3013C42.7417 56.328 43.2724 56.8507 43.2937 57.9893C43.3044 58.7307 43.307 59.4747 43.283 60.2133C43.2484 61.2347 42.7684 61.832 41.7577 61.8667C39.795 61.928 37.827 61.8827 35.8217 61.8827V60.24H36.4724C37.9577 60.24 39.4404 60.232 40.9204 60.2453C41.4164 60.2507 41.6457 60.0533 41.6244 59.552C41.6084 59.1611 41.6084 58.7696 41.6244 58.3787C41.643 57.8773 41.4164 57.6907 40.915 57.7013C39.8484 57.728 38.771 57.7173 37.699 57.7067C36.2777 57.6907 35.7737 57.1653 35.7737 55.7413C35.7737 55.096 35.7657 54.4533 35.7844 53.8107C35.8164 52.7787 36.291 52.1893 37.299 52.1573C38.2404 52.1307 39.1844 52.1307 40.139 52.1307L40.1364 52.136ZM5.89636 52.1893C6.9897 52.1813 8.08303 52.2053 9.19503 52.2053V53.768C8.9817 53.7813 8.77903 53.8053 8.57636 53.8053C7.40836 53.8107 6.2377 53.8187 5.0697 53.8053C4.60303 53.8 4.40303 53.9973 4.40303 54.472C4.41903 56.1733 4.42436 57.8693 4.40303 59.5653C4.40303 60.088 4.62436 60.2507 5.1097 60.248C6.2777 60.2347 7.44836 60.2427 8.61903 60.2427H9.2137V61.864C7.48036 61.864 5.7897 61.9173 4.1017 61.8427C3.1897 61.8053 2.7417 61.2373 2.73103 60.328C2.70436 58.1253 2.70436 55.92 2.73103 53.7147C2.73903 52.8667 3.1497 52.264 3.9257 52.2293C4.59236 52.192 5.2857 52.2027 5.89103 52.1867L5.89636 52.1893ZM32.0457 53.808C31.0937 53.8267 30.139 53.8213 29.187 53.808C28.715 53.808 28.5257 54.0213 28.531 54.488C28.5417 56.2027 28.5417 57.9147 28.531 59.6267C28.531 60.0533 28.7177 60.24 29.1177 60.24C30.131 60.248 31.1444 60.24 32.1524 60.24C32.6057 60.24 32.7604 60.0187 32.7497 59.5787C32.7284 58.7253 32.7497 57.8667 32.7364 57.0107C32.7364 56.168 32.7177 55.3307 32.7364 54.4933H32.747C32.7604 53.9867 32.5417 53.8 32.0484 53.8053L32.0457 53.808ZM12.627 53.816C12.179 53.8107 11.995 54.0187 12.0004 54.456C12.0137 55.3147 12.0004 56.1733 12.0004 57.0293C12.0004 57.8827 12.0164 58.736 11.9897 59.5947H11.995C11.9844 60.048 12.1737 60.248 12.6084 60.248H15.587C16.0084 60.248 16.2137 60.0667 16.211 59.608C16.195 57.896 16.2004 56.1867 16.211 54.472C16.211 54.0453 16.0617 53.8107 15.603 53.816C14.6084 53.8293 13.619 53.824 12.627 53.816Z" fill="#E3FF04"/>
</svg>
