<svg width="142" height="64" viewBox="0 0 142 64" fill="none" xmlns="http://www.w3.org/2000/svg">
<path d="M86.9995 48.9592C88.7497 48.9592 90.4289 49.5672 91.7711 50.6652L91.8539 50.7301L90.9729 52.1409C90.0045 51.2568 88.7681 50.7209 87.4599 50.6182C86.1517 50.5156 84.8466 50.8521 83.7518 51.5744C82.657 52.2966 81.8352 53.3633 81.4168 54.605C80.9984 55.8467 81.0074 57.1924 81.4424 58.4284C81.8774 59.6644 82.7135 60.72 83.8178 61.4276C84.9222 62.1352 86.2317 62.4542 87.5385 62.3341C88.8452 62.214 90.0743 61.6616 91.0307 60.7646C91.9871 59.8675 92.616 58.6773 92.8176 57.3828L92.8295 57.3001H87.7918L88.8147 55.665H94.5264V56.4855C94.5264 60.6294 91.1503 64 87.0055 64C85.0449 63.9459 83.1828 63.1306 81.815 61.7273C80.4472 60.324 79.6815 58.4435 79.6807 56.4854C79.6799 54.5274 80.4441 52.6462 81.8109 51.2419C83.1776 49.8375 85.039 49.0149 86.9995 48.9592ZM7.52096 48.9592C9.57267 48.9592 11.5416 49.8152 12.9488 51.2791L13.0198 51.3499L12.0915 52.7785C11.3332 51.8393 10.304 51.1556 9.14334 50.8203C7.98268 50.485 6.7468 50.5142 5.60335 50.904C4.45989 51.2938 3.46421 52.0253 2.75136 52.9993C2.03852 53.9733 1.64301 55.1426 1.61849 56.3486C1.59397 57.5547 1.94163 58.7391 2.6143 59.7411C3.28698 60.7432 4.25211 61.5144 5.37878 61.9502C6.50545 62.386 7.73912 62.4653 8.91245 62.1773C10.0858 61.8892 11.142 61.2479 11.9378 60.3402L11.9969 60.2693L13.2445 61.3319C12.2453 62.497 10.9129 63.3289 9.42636 63.716C7.93976 64.1031 6.37012 64.0267 4.92827 63.4972C3.48641 62.9677 2.24138 62.0103 1.36041 60.7538C0.479437 59.4972 0.00471401 58.0016 0 56.4678C0 52.3357 3.37615 48.9592 7.52096 48.9592ZM21.948 49.0537C25.7262 49.0537 27.2339 50.8246 27.2339 53.3806C27.2339 55.5233 26.146 57.0345 23.5621 57.548L23.4794 57.5658L27.6301 63.9115H25.6434L21.7233 57.6661H18.897V63.9115H17.2828V49.0537H21.948ZM56.7147 62.4711V63.9115H46.533V62.4711H56.7147ZM32.9574 49.0537L37.0431 55.8362C37.1613 56.0498 37.2508 56.2781 37.3092 56.515C37.3683 56.3379 37.4215 56.1195 37.5634 55.8657L37.5989 55.8067L41.6668 49.0478H43.4229L34.1754 63.9115H32.5731L36.3986 57.7133L31.1836 49.0478L32.9574 49.0537ZM136.56 62.4711V63.9115H126.378V62.4711H136.56ZM109.592 49.0537L118.532 61.3614C118.455 61.0072 118.414 60.8832 118.408 60.6117V49.0537H120.016V63.9174H118.491L109.533 51.5683C109.592 51.7631 109.669 52.0288 109.675 52.4066V63.9174H108.067V49.0537H109.592ZM101.545 49.0537V63.9174H99.9365V49.0537H101.545ZM63.733 49.0537L72.6731 61.3614C72.5962 61.0072 72.5548 60.8832 72.5489 60.6117V49.0537H74.1571V63.9174H72.6317L63.6739 51.5683C63.733 51.7631 63.8099 52.0288 63.8158 52.4066V63.9174H62.2076V49.0537H63.733ZM136.56 55.3403V56.7984H126.378V55.3344L136.56 55.3403ZM56.7147 55.3403V56.7984H46.533V55.3344L56.7147 55.3403ZM21.9716 50.4881H18.897V56.2022H21.9539C24.2244 56.2022 25.5902 55.5351 25.5902 53.3747C25.5843 51.2083 24.2184 50.4881 21.9716 50.4881ZM140.173 47.147C140.407 47.1333 140.642 47.1676 140.864 47.2479C141.085 47.3281 141.287 47.4527 141.458 47.6138C141.629 47.7749 141.766 47.9693 141.859 48.1849C141.952 48.4005 142 48.6329 142 48.8677C142 49.1026 141.952 49.335 141.859 49.5506C141.766 49.7662 141.629 49.9606 141.458 50.1217C141.287 50.2828 141.085 50.4074 140.864 50.4876C140.642 50.5679 140.407 50.6022 140.173 50.5885C139.938 50.6022 139.703 50.5679 139.481 50.4876C139.26 50.4074 139.058 50.2828 138.887 50.1217C138.716 49.9606 138.579 49.7662 138.486 49.5506C138.393 49.335 138.345 49.1026 138.345 48.8677C138.345 48.6329 138.393 48.4005 138.486 48.1849C138.579 47.9693 138.716 47.7749 138.887 47.6138C139.058 47.4527 139.26 47.3281 139.481 47.2479C139.703 47.1676 139.938 47.1333 140.173 47.147ZM136.56 49.0478V50.494H126.378V49.0537L136.56 49.0478ZM56.7147 49.0478V50.494H48.023L48.9158 49.0537L56.7147 49.0478ZM140.173 47.4363C139.793 47.4363 139.429 47.5868 139.161 47.8547C138.892 48.1226 138.742 48.4859 138.742 48.8648C138.742 49.2437 138.892 49.607 139.161 49.8749C139.429 50.1428 139.793 50.2933 140.173 50.2933C140.553 50.2933 140.917 50.1425 141.186 49.874C141.455 49.6056 141.606 49.2415 141.606 48.8618C141.606 48.4822 141.455 48.1181 141.186 47.8496C140.917 47.5812 140.553 47.4363 140.173 47.4363ZM140.184 47.9675C140.628 47.9675 140.823 48.1918 140.823 48.5047C140.823 48.7408 140.716 48.9179 140.474 49.0006L140.439 49.0124L140.912 49.7384H140.569L140.173 49.1245C140.161 49.1127 140.155 49.0832 140.149 49.0655V49.0419H139.806V49.7384H139.522V47.9675H140.184ZM140.19 48.2391H139.806V48.7762H140.184C140.427 48.7762 140.539 48.7172 140.539 48.5106C140.539 48.3158 140.427 48.2391 140.19 48.2391ZM64.5017 0.112157L65.022 0.0708361C51.068 3.31747 42.7843 13.8366 42.7843 15.206V15.212C42.7843 15.2179 42.7902 15.1588 42.7962 15.4245V15.4599C43.08 16.9533 47.207 24.1668 63.1477 28.4523C44.8774 27.0061 36.576 18.1339 36.168 15.5366L36.1621 15.454H36.1562C36.1562 15.1824 36.1503 15.2356 36.1503 15.2533L36.1562 15.1765C36.375 12.5084 47.5559 1.52887 64.5017 0.112157ZM70.3021 0C89.2759 0.985796 100.315 12.2487 100.415 15.4068V15.3949L100.41 15.5897V15.6252H100.398C100.25 17.2072 94.219 23.6414 85.1962 26.6047C74.169 30.2232 56.4249 28.9068 56.4249 15.1057C56.4289 11.9832 57.6751 8.99011 59.8895 6.78492C62.1038 4.57973 65.1049 3.34307 68.2326 3.34698C71.3603 3.3509 74.3583 4.59507 76.5671 6.80579C78.7759 9.01651 80.0146 12.0127 80.0107 15.1352C80.0107 18.2933 78.6449 21.351 76.5754 23.5174C82.293 23.2709 87.7719 21.1601 92.1732 17.5082C92.9063 16.7999 93.3734 16.1977 93.5686 15.8318C93.6458 15.7034 93.6867 15.5565 93.6868 15.4068C93.6927 13.99 86.0712 3.10496 70.3021 0ZM68.1912 8.42354C67.313 8.42354 66.4435 8.59623 65.6321 8.93174C64.8208 9.26725 64.0836 9.75902 63.4626 10.379C62.8416 10.9989 62.3491 11.7349 62.013 12.5449C61.6769 13.3549 61.504 14.2231 61.504 15.0998C61.504 15.9765 61.6769 16.8447 62.013 17.6547C62.3491 18.4647 62.8416 19.2007 63.4626 19.8206C64.0836 20.4406 64.8208 20.9323 65.6321 21.2679C66.4435 21.6034 67.313 21.7761 68.1912 21.7761C69.9648 21.7761 71.6657 21.0727 72.9198 19.8206C74.1739 18.5686 74.8785 16.8705 74.8785 15.0998C74.8785 13.3291 74.1739 11.631 72.9198 10.379C71.6657 9.12693 69.9648 8.42354 68.1912 8.42354Z" fill="#E3FF04"/>
</svg>
