<svg width="50" height="56" viewBox="0 0 50 56" fill="none" xmlns="http://www.w3.org/2000/svg">
<path d="M41.2628 34.3215V24.0426C41.2628 23.5873 40.9091 23.3422 40.5554 23.5873L29.9434 29.6461C29.7135 29.7687 29.4836 30.1189 29.4836 30.4692V42.6043C29.4836 43.077 29.8373 43.3047 30.191 43.077L39.1404 37.9463L47.8776 42.9545L25.115 55.9651L25.0619 56L24.9912 55.9651L9.58613 47.1394L2.28157 42.9369L10.9658 37.9462L19.9328 43.077C20.2864 43.3047 20.6401 42.9545 20.5163 42.4993V30.3465C20.5163 29.9963 20.3926 29.7687 20.0389 29.541L9.42695 23.4647C9.19703 23.3421 8.71949 23.5872 8.71949 23.9374V34.1989L0 39.2246V13.0807L22.9926 0V10.0338L14.0255 15.182C13.6717 15.2871 13.6717 15.8825 14.0255 15.9875L24.6374 22.0638C24.885 22.1864 25.2388 22.2915 25.5925 22.0638L36.2045 15.9875C36.5582 15.8825 36.5582 15.4097 36.2045 15.182L27.2374 10.0338V0L50 13.0807V39.1721L41.2628 34.3215Z" fill="#E3FF04"/>
</svg>
