<svg width="58" height="56" viewBox="0 0 58 56" fill="none" xmlns="http://www.w3.org/2000/svg">
<path d="M54.4527 38.0722C54.4527 38.0722 54.3682 37.5534 54.3187 37.5581L44.9055 38.4663C44.1565 38.5386 43.5748 39.136 43.5222 39.8865L43.2636 43.5931L35.9811 44.1126L35.4858 40.7534C35.3755 40.0062 34.723 39.443 33.9677 39.443H24.0326C23.2776 39.443 22.6251 40.0062 22.5148 40.7534L22.0192 44.1126L14.7367 43.5931L14.4781 39.8865C14.4256 39.1357 13.8439 38.5384 13.0949 38.466L3.67694 37.5581C3.62829 37.5534 3.59265 38.0727 3.544 38.0727L3.53125 40.1098L11.5073 41.396L11.7685 45.1356C11.8214 45.8927 12.4322 46.5048 13.1898 46.5592L23.2194 47.2746C23.2573 47.2772 23.2948 47.2788 23.3323 47.2788C24.086 47.2788 24.7374 46.7153 24.8477 45.9681L25.3574 42.5116H32.6433L33.1529 45.9681C33.263 46.715 33.9152 47.2785 34.6699 47.2785C34.7069 47.2785 34.7438 47.2772 34.78 47.2746L44.8108 46.5592C45.5682 46.5048 46.1793 45.8927 46.2321 45.1356L46.493 41.396L54.4657 40.104L54.4527 38.0722Z" fill="#111111"/>
<path d="M3.54368 22.7116V35.073V36.6431V38.0719C3.57178 38.0722 3.59988 38.0732 3.62772 38.0758L13.0446 38.9838C13.5379 39.0314 13.9245 39.4284 13.9588 39.9227L14.2491 44.0796L22.4635 44.6658L23.0294 40.8291C23.1028 40.3317 23.5294 39.9631 24.0326 39.9631H33.9677C34.4706 39.9631 34.8972 40.3317 34.9706 40.8291L35.5365 44.6658L43.7511 44.0796L44.0412 39.9227C44.0758 39.4284 44.4621 39.0317 44.9554 38.9838L54.3686 38.0758C54.3965 38.0732 54.4243 38.0722 54.4524 38.0719V36.8463L54.4563 36.845V22.7116H54.4912C55.7387 21.1194 56.893 19.4416 58 17.6517C56.5298 15.149 54.7284 12.9123 52.803 10.8401C51.0172 11.739 49.2827 12.7573 47.6445 13.8409C46.8247 13.026 45.9014 12.3595 44.9944 11.6628C44.1034 10.9471 43.0992 10.4223 42.1467 9.81093C42.4303 7.69918 42.5705 5.62022 42.627 3.45046C40.1695 2.21364 37.5488 1.39361 34.898 0.804599C33.8397 2.58333 32.8719 4.50958 32.029 6.39264C31.0294 6.22562 30.0252 6.1637 29.0196 6.15173V6.15017C29.0126 6.15017 29.0061 6.15173 29.0001 6.15173C28.9939 6.15173 28.9874 6.15017 28.9811 6.15017V6.15173C27.9738 6.1637 26.9703 6.22562 25.9705 6.39264C25.1281 4.50958 24.1608 2.58333 23.1009 0.804599C20.4514 1.39361 17.8305 2.21364 15.3733 3.45046C15.4295 5.62022 15.5697 7.69918 15.8541 9.81093C14.8998 10.4223 13.8969 10.9471 13.0056 11.6628C12.0999 12.3595 11.1751 13.026 10.355 13.8409C8.71677 12.7573 6.98278 11.739 5.1965 10.8401C3.27103 12.9123 1.4707 15.149 0 17.6517C1.10647 19.4416 2.2616 21.1194 3.50882 22.7116H3.54368Z" fill="#E3FF04"/>
<path d="M46.0046 40.9202L45.713 45.0992C45.6779 45.6029 45.2772 46.0038 44.7736 46.0399L34.743 46.7557C34.7185 46.7575 34.6941 46.7583 34.6699 46.7583C34.1714 46.7583 33.7413 46.3925 33.6677 45.8919L33.0925 41.991H24.908L24.3328 45.8919C24.2555 46.4169 23.7862 46.7944 23.2575 46.7557L13.2269 46.0399C12.7233 46.0038 12.3226 45.6029 12.2875 45.0992L11.9959 40.9202L3.52832 40.1038C3.53222 41.0139 3.54393 42.0108 3.54393 42.2093C3.54393 51.1522 14.8883 55.4506 28.9829 55.5H29.0001H29.0176C43.1122 55.4506 54.4527 51.1522 54.4527 42.2093C54.4527 42.0072 54.4649 41.0144 54.4691 40.1038L46.0046 40.9202Z" fill="#E3FF04"/>
<path d="M21.3257 28.9471C21.3257 32.0826 18.7852 34.6226 15.6507 34.6226C12.5178 34.6226 9.97656 32.0826 9.97656 28.9471C9.97656 25.8137 12.5178 23.275 15.6507 23.275C18.7852 23.275 21.3257 25.8137 21.3257 28.9471Z" fill="#111111"/>
<path d="M19.9606 29.2835C19.9606 31.3632 18.275 33.0488 16.1937 33.0488C14.1134 33.0488 12.4268 31.3632 12.4268 29.2835C12.4268 27.2037 14.1134 25.5166 16.1937 25.5166C18.275 25.5166 19.9606 27.2037 19.9606 29.2835Z" fill="#414042"/>
<path d="M28.9995 35.1387C27.9905 35.1387 27.1729 34.3951 27.1729 33.4786V28.2542C27.1729 27.3385 27.9905 26.5941 28.9995 26.5941C30.0084 26.5941 30.8279 27.3385 30.8279 28.2542V33.4786C30.8279 34.3951 30.0084 35.1387 28.9995 35.1387Z" fill="#111111"/>
<path d="M36.6738 28.9471C36.6738 32.0826 39.2143 34.6226 42.3493 34.6226C45.4819 34.6226 48.0229 32.0826 48.0229 28.9471C48.0229 25.8137 45.4819 23.275 42.3493 23.275C39.2143 23.275 36.6738 25.8137 36.6738 28.9471Z" fill="#111111"/>
<path d="M38.04 29.2835C38.04 31.3632 39.7251 33.0488 41.8049 33.0488C43.8867 33.0488 45.5718 31.3632 45.5718 29.2835C45.5718 27.2037 43.8867 25.5166 41.8049 25.5166C39.7251 25.5166 38.04 27.2037 38.04 29.2835Z" fill="#414042"/>
</svg>
