<svg width="58" height="55" viewBox="0 0 58 55" fill="none" xmlns="http://www.w3.org/2000/svg">
<g clip-path="url(#clip0_207_4051)">
<mask id="mask0_207_4051" style="mask-type:luminance" maskUnits="userSpaceOnUse" x="0" y="-17" width="117" height="88">
<path d="M116.638 -16.7896H0V70.6889H116.638V-16.7896Z" fill="white"/>
</mask>
<g mask="url(#mask0_207_4051)">
<path d="M12.2119 4.43854C23.5203 4.444 34.8287 4.44218 46.1371 4.44036C46.775 4.45312 47.4256 4.39115 48.0562 4.52419C48.8672 4.81032 49.5214 5.47734 49.8313 6.27741C49.9315 17.9321 49.8841 29.5886 49.8805 41.2451C37.331 41.2779 24.7833 41.2578 12.2356 41.2524C12.1992 28.9835 12.2484 16.711 12.2119 4.43854ZM20.5023 12.6761C20.506 19.4721 20.4987 26.2699 20.5041 33.0658C21.9676 33.0804 23.4292 33.0768 24.8945 33.0713C24.9327 29.1621 24.8981 25.2529 24.9072 21.3456C24.9036 20.7678 25.0202 20.2011 25.1077 19.6324C25.1605 20.3541 25.3246 21.0576 25.5378 21.7465C26.5383 25.519 27.5133 29.2988 28.5285 33.0713C30.1158 33.0841 31.7032 33.0658 33.2887 33.0859C34.426 28.7958 35.616 24.5148 36.6548 20.1974C36.7514 21.3401 36.7204 22.4882 36.7277 23.6346C36.7204 26.7783 36.7259 29.9239 36.7296 33.0658C38.3315 33.0932 39.9371 33.0586 41.5427 33.0877C41.581 32.8617 41.6065 32.6321 41.6211 32.4043C41.6192 25.8288 41.6211 19.257 41.6211 12.6834C39.5398 12.6378 37.4604 12.6706 35.3809 12.6597C33.8974 18.0451 32.5907 23.4778 31.0508 28.845C29.6456 23.4614 28.3535 18.0451 26.9557 12.6579C24.8033 12.6743 22.651 12.6396 20.5023 12.6761Z" fill="#E3FF04"/>
</g>
<mask id="mask1_207_4051" style="mask-type:luminance" maskUnits="userSpaceOnUse" x="0" y="-17" width="117" height="88">
<path d="M116.638 -16.7896H0V70.6889H116.638V-16.7896Z" fill="white"/>
</mask>
<g mask="url(#mask1_207_4051)">
<path d="M4.25384 9.21152C6.91828 7.64237 9.54263 6.00033 12.2125 4.43848C12.249 16.711 12.1998 28.9816 12.2381 41.2523C11.0243 42.0013 9.78867 42.7085 8.58584 43.4702C7.13698 44.314 5.7355 45.2417 4.25201 46.0253C4.2265 33.7547 4.22468 21.4822 4.25384 9.21152Z" fill="#B9CB2E"/>
</g>
<mask id="mask2_207_4051" style="mask-type:luminance" maskUnits="userSpaceOnUse" x="0" y="-17" width="117" height="88">
<path d="M116.638 -16.7896H0V70.6889H116.638V-16.7896Z" fill="white"/>
</mask>
<g mask="url(#mask2_207_4051)">
<path d="M49.8334 6.27734C49.9719 8.4151 49.8517 10.5638 49.9009 12.7052C51.1055 12.7143 52.3138 12.7289 53.5203 12.707C53.5567 24.9576 53.5421 37.2101 53.5276 49.4625C39.4891 49.4479 25.4507 49.4589 11.4158 49.457C10.408 49.4862 9.39654 48.9613 8.89719 48.0738C8.5819 47.5507 8.58372 46.9183 8.58008 46.3279C8.58919 45.3747 8.58008 44.4216 8.58372 43.4702C9.78655 42.7066 11.0222 42.0013 12.2359 41.2523C24.7855 41.2578 37.3331 41.2778 49.8808 41.245C49.8881 29.5885 49.9355 17.932 49.8334 6.27734Z" fill="#444D00"/>
</g>
</g>
<defs>
<clipPath id="clip0_207_4051">
<rect width="58" height="54.9474" fill="white"/>
</clipPath>
</defs>
</svg>
