<svg width="30" height="30" viewBox="0 0 30 30" fill="none" xmlns="http://www.w3.org/2000/svg">
<g clip-path="url(#clip0_17_361)">
<path d="M29.2429 25.1656C29.2429 25.1656 27.242 23.1655 26.039 21.9631L21.9717 26.0304L25.1768 29.234C26.6169 30.6783 28.4855 29.7531 29.1222 29.1143C30.0913 28.1542 30.4289 26.3554 29.2445 25.1673C29.244 25.1668 29.2435 25.1663 29.2429 25.1656Z" fill="#E3FF04"/>
<path d="M25.3358 16.6401C24.3583 15.6626 22.7733 15.6626 21.7957 16.6401L16.6495 21.7863C15.672 22.7639 15.672 24.3489 16.6495 25.3264C17.6271 26.304 19.2119 26.304 20.1894 25.3264L25.3358 20.18C26.3134 19.2025 26.3134 17.6177 25.3358 16.6401Z" fill="#E3FF04"/>
<path d="M0.757145 25.1656C0.756458 25.1663 0.756 25.1668 0.755543 25.167C-0.428921 26.3554 -0.09132 28.1539 0.877765 29.1143C1.51451 29.7531 3.38311 30.678 4.82323 29.2338L8.02826 26.0301L3.96103 21.9631C2.75803 23.1655 0.757145 25.1656 0.757145 25.1656Z" fill="#E3FF04"/>
<path d="M7.80716 13.7569L13.7569 7.80716L6.20727 0.257492C6.04271 0.0924682 5.81909 0 5.58586 0H0.878906C0.393448 0 0 0.393448 0 0.878906V5.58586C0 5.81909 0.0924682 6.04271 0.257492 6.20727L7.80716 13.7569Z" fill="#E3FF04"/>
<path d="M30 5.58586V0.878906C30 0.393448 29.6065 0 29.1211 0H24.4141C24.1809 0 23.9575 0.0924682 23.7927 0.257492L9.04999 15L15 20.95L29.7425 6.2075C29.9075 6.04271 30 5.81909 30 5.58586Z" fill="#E3FF04"/>
<path d="M8.20427 16.6401C7.22672 15.6626 5.64171 15.6626 4.66416 16.6401C3.6866 17.6177 3.6866 19.2025 4.66416 20.18L9.81034 25.3264C10.7879 26.304 12.3729 26.304 13.3504 25.3264C14.328 24.3489 14.328 22.7639 13.3504 21.7863L8.20427 16.6401Z" fill="#E3FF04"/>
</g>
<defs>
<clipPath id="clip0_17_361">
<rect width="30" height="30" fill="white"/>
</clipPath>
</defs>
</svg>
