<svg width="30" height="30" viewBox="0 0 30 30" fill="none" xmlns="http://www.w3.org/2000/svg">
<g clip-path="url(#clip0_17_384)">
<path d="M15 19.7693C17.6296 19.7693 19.7694 17.6295 19.7694 14.9999C19.7694 12.3703 17.6296 10.2305 15 10.2305C12.3703 10.2305 10.2305 12.3703 10.2305 14.9999C10.2305 17.6295 12.3703 19.7693 15 19.7693ZM15 12.2384C16.5227 12.2384 17.7614 13.4772 17.7614 14.9999C17.7614 16.5227 16.5227 17.7614 15 17.7614C13.4772 17.7614 12.2385 16.5227 12.2385 14.9999C12.2385 13.4772 13.4772 12.2384 15 12.2384Z" fill="#E3FF04"/>
<path d="M27.5611 21.5116L20.9981 17.5737C20.3378 19.1066 19.1066 20.3377 17.5738 20.998L21.5117 27.561C21.76 27.9748 22.2993 28.1142 22.7186 27.862C24.819 26.5976 26.5975 24.819 27.862 22.7185C28.1122 22.3027 27.9776 21.7616 27.5611 21.5116Z" fill="#E3FF04"/>
<path d="M15.8114 21.477C15.5454 21.5102 15.2747 21.5276 15 21.5276C11.4008 21.5276 8.47275 18.5993 8.47275 15.0001C8.47275 14.7254 8.48991 14.4547 8.5231 14.1889L1.53465 9.99582C1.34125 9.87978 1.16615 9.74153 1.01166 9.58521C0.358887 11.2657 0 13.0917 0 15.0001C0 23.2712 6.7289 30.0001 15 30.0001C16.9093 30.0001 18.736 29.6407 20.4172 28.9875C20.2597 28.833 20.1201 28.6584 20.0045 28.4657L15.8114 21.477Z" fill="#E3FF04"/>
<path d="M15 0C13.0907 0 11.264 0.359344 9.58282 1.01257C9.7403 1.16684 9.87991 1.34171 9.9955 1.53442L14.1886 8.5231C14.4546 8.48991 14.7253 8.47252 15 8.47252C18.5992 8.47252 21.5273 11.4008 21.5273 15C21.5273 15.2747 21.5101 15.5454 21.4769 15.8112L28.4653 20.0043C28.6588 20.1203 28.8338 20.2586 28.9883 20.4149C29.6411 18.7344 30 16.9084 30 15C30 6.7289 23.2711 0 15 0Z" fill="#E3FF04"/>
<path d="M2.43896 8.4883L9.00192 12.4262C9.66224 10.8934 10.8934 9.66223 12.4262 9.00191L8.48831 2.43895C8.2386 2.02261 7.69775 1.88757 7.28141 2.1382C5.18097 3.40254 3.40255 5.18095 2.13821 7.2814C1.88781 7.69728 2.0224 8.23836 2.43896 8.4883Z" fill="#E3FF04"/>
</g>
<defs>
<clipPath id="clip0_17_384">
<rect width="30" height="30" fill="white"/>
</clipPath>
</defs>
</svg>
