<svg width="30" height="30" viewBox="0 0 30 30" fill="none" xmlns="http://www.w3.org/2000/svg">
<g clip-path="url(#clip0_17_373)">
<path d="M11.2344 15.8633C10.6808 15.8633 10.2306 16.3137 10.2306 16.8672C10.2306 17.4208 10.6808 17.871 11.2344 17.871C11.7879 17.871 12.2383 17.4208 12.2383 16.8672C12.2383 16.3137 11.7879 15.8633 11.2344 15.8633Z" fill="#E3FF04"/>
<path d="M11.2344 12.0977C10.6808 12.0977 10.2306 12.5479 10.2306 13.1015C10.2306 13.655 10.6808 14.1054 11.2344 14.1054C11.7879 14.1054 12.2383 13.655 12.2383 13.1015C12.2383 12.5479 11.7879 12.0977 11.2344 12.0977Z" fill="#E3FF04"/>
<path d="M11.2344 9.27344C8.08525 9.27344 5.52338 11.8355 5.52338 14.9845C5.52338 18.1335 8.08525 20.6953 11.2344 20.6953C14.3834 20.6953 16.9453 18.1335 16.9453 14.9845C16.9453 11.8355 14.3834 9.27344 11.2344 9.27344ZM13.9961 16.8673C13.9961 18.39 12.7572 19.629 11.2344 19.629C9.71169 19.629 8.47275 18.39 8.47275 16.8673C8.47275 16.1401 8.75565 15.4782 9.21661 14.9845C8.75565 14.4908 8.47275 13.8289 8.47275 13.1017C8.47275 11.5787 9.71146 10.34 11.2344 10.34C12.7572 10.34 13.9961 11.5787 13.9961 13.1017C13.9961 13.8289 13.713 14.4908 13.2523 14.9845C13.7132 15.4782 13.9961 16.1401 13.9961 16.8673Z" fill="#E3FF04"/>
<path d="M22.4689 14.9844C22.4689 8.78975 17.4291 3.75 11.2344 3.75C5.03975 3.75 0 8.78975 0 14.9844C0 21.1791 5.03975 26.2189 11.2344 26.2189C17.4289 26.2189 22.4689 21.1791 22.4689 14.9844ZM11.2344 22.4531C7.11617 22.4531 3.76556 19.1027 3.76556 14.9844C3.76556 10.8662 7.11617 7.51556 11.2344 7.51556C15.3527 7.51556 18.7031 10.8662 18.7031 14.9844C18.7031 19.1027 15.3527 22.4531 11.2344 22.4531Z" fill="#E3FF04"/>
<path d="M28.9272 10.1968C28.1882 11.4309 27.7421 13.1752 27.7421 14.9845C27.7421 16.7938 28.1882 18.5381 28.9272 19.7723C29.6148 18.3191 30 16.6961 30 14.9845C30 13.2729 29.6148 11.6499 28.9272 10.1968Z" fill="#E3FF04"/>
<path d="M27.9508 8.52333C25.9154 5.63828 22.557 3.75 18.7655 3.75C18.4476 3.75 18.1327 3.76396 17.8214 3.79005C21.6515 6.05255 24.2267 10.223 24.2267 14.9844C24.2267 19.7459 21.6515 23.9163 17.8214 26.1788C18.1329 26.2047 18.4476 26.2189 18.7655 26.2189C22.557 26.2189 25.9154 24.3306 27.9508 21.4455C26.724 19.8983 25.9845 17.5104 25.9845 14.9844C25.9845 12.4583 26.7238 10.0706 27.9508 8.52333Z" fill="#E3FF04"/>
</g>
<defs>
<clipPath id="clip0_17_373">
<rect width="30" height="30" fill="white"/>
</clipPath>
</defs>
</svg>
