<svg width="55" height="59" viewBox="0 0 55 59" fill="none" xmlns="http://www.w3.org/2000/svg">
<g clip-path="url(#clip0_273_3131)">
<path fill-rule="evenodd" clip-rule="evenodd" d="M54.597 2.75073H51.5985V0H30.7897V2.75073H27.7911V20.8066H25.0068V23.6187H20.7906V26.349H16.507V29.1202H13.8554V31.9334H7.15259V29.1202H4.42178V26.349H1.68989V20.8066H0V36.6947H2.79079V39.4659H5.59121V42.2791H8.25348V45.0923H11.1021V47.8581H13.8554V59H18.2761V57.2998H15.5453V53.4059H18.5267V50.6864H21.2714V48.2331H25.0057V50.6864H27.7108V59H32.1272V57.2998H29.3964V45.0923H32.4571V42.2791H35.0401V38.4003H37.9605V28.046H41.7193V31.2061H43.4082V26.349H37.9605V19.8994H48.9233V18.2003H40.5039V14.2525H54.597V2.75073ZM32.3639 3.25066H36.4965V7.06375H32.3639V3.25066Z" fill="white"/>
</g>
<defs>
<clipPath id="clip0_273_3131">
<rect width="54.597" height="59" fill="white"/>
</clipPath>
</defs>
</svg>
