<svg width="40" height="40" viewBox="0 0 40 40" fill="none" xmlns="http://www.w3.org/2000/svg">
<path d="M34.1327 0C34.3829 0.175325 34.6272 0.299424 34.8123 0.484599C36.3804 2.06647 37.9406 3.65622 39.4969 5.24991C40.0721 5.83892 40.0642 6.10879 39.4752 6.71159C36.079 10.1728 32.6887 13.6419 29.2729 17.0834C28.7095 17.6507 28.5361 18.2634 28.4376 19.0435C28.1539 21.2715 28.9616 22.8593 30.6006 24.386C33.654 27.2306 36.4907 30.3056 39.4141 33.2881C40.0898 33.9776 40.0918 34.2081 39.4102 34.9055C37.8874 36.4657 36.3588 38.0219 34.8261 39.5742C34.2667 40.1396 33.985 40.1436 33.4255 39.5762C29.6176 35.7072 25.8038 31.8422 22.0294 27.9397C21.6984 27.597 21.4679 27.0001 21.464 26.5194C21.4207 22.2033 21.4167 17.8871 21.464 13.571C21.4699 13.0726 21.7221 12.4579 22.0688 12.0974C25.8412 8.19301 29.655 4.32796 33.4649 0.458989C33.6343 0.287603 33.8668 0.179265 34.1347 0H34.1327Z" fill="#111111"/>
<path d="M18.4678 20.0798C18.4678 22.1916 18.4579 24.3033 18.4737 26.4131C18.4796 27.0553 18.2865 27.5734 17.8295 28.0344C14.0511 31.8659 10.2826 35.7113 6.51018 39.5487C5.93102 40.1378 5.64538 40.1377 5.0603 39.5448C3.52965 37.9925 2.00098 36.4362 0.476239 34.876C-0.162024 34.222 -0.156113 33.96 0.478209 33.3119C3.90591 29.8192 7.32968 26.3205 10.7712 22.8396C11.2459 22.359 11.3819 21.8251 11.4725 21.1731C11.7955 18.8545 10.9445 17.178 9.22674 15.5863C6.21666 12.8008 3.4351 9.76709 0.558977 6.83778C-0.191572 6.07344 -0.183693 5.8469 0.584586 5.06877C2.0522 3.58344 3.50996 2.09021 4.97559 0.602899C5.6572 -0.0885518 5.90738 -0.0944569 6.57519 0.583205C10.3319 4.40293 14.1004 8.21479 17.8216 12.07C18.1801 12.4423 18.4185 13.0825 18.4362 13.6065C18.5052 15.7616 18.4638 17.9207 18.4658 20.0798H18.4678Z" fill="#111111"/>
</svg>
