<svg width="48" height="48" viewBox="0 0 48 48" fill="none" xmlns="http://www.w3.org/2000/svg">
<g clip-path="url(#clip0_150_150)">
<path d="M12.526 21.0872C12.5963 20.9645 12.6798 20.8444 12.7754 20.7261L12.7831 20.7151L12.827 20.6635L21.5007 10.5439H16.4694C16.0962 10.5439 15.738 10.6923 15.4744 10.9556L5.34277 21.0872H12.526Z" fill="#E3FF04"/>
<path d="M31.8318 21.0872L24 11.9502L16.1689 21.0872H31.8318Z" fill="#E3FF04"/>
<path d="M35.2335 20.7385C35.3254 20.8528 35.4053 20.9692 35.4738 21.0872H42.657L32.5254 10.9556C32.2617 10.6923 31.9036 10.5439 31.5304 10.5439H26.499L35.1812 20.6737L35.2335 20.7385Z" fill="#E3FF04"/>
<path d="M5.30859 23.8997L19.7179 39.509L12.5134 23.8997H5.30859Z" fill="#E3FF04"/>
<path d="M15.6123 23.8997L24 42.0751L32.3888 23.8997H15.6123Z" fill="#E3FF04"/>
<path d="M35.4857 23.8997L28.2812 39.509L42.6906 23.8997H35.4857Z" fill="#E3FF04"/>
<path d="M34.1283 8.77441C36.5145 9.58008 38.4152 11.4796 39.223 13.8647C39.3981 14.4419 39.9342 14.8616 40.5688 14.8616C41.2006 14.8616 41.7352 14.4448 41.9125 13.8713C42.7181 11.4851 44.6173 9.58447 47.0028 8.77661C47.5796 8.60156 47.9996 8.06543 47.9996 7.43079C47.9996 6.79907 47.5825 6.2644 47.009 6.08716C44.6228 5.28149 42.7225 3.38269 41.9147 0.997192C41.7396 0.420044 41.2035 0 40.5688 0C39.9368 0 39.4025 0.417114 39.2249 0.990601C38.4192 3.37683 36.52 5.27747 34.1349 6.08496C33.5577 6.26001 33.1377 6.79651 33.1377 7.43079C33.1381 8.06287 33.5548 8.59717 34.1283 8.77441Z" fill="#E3FF04"/>
<path d="M47.0386 40.741C45.3339 40.173 43.9774 38.8162 43.4094 37.1118C43.2179 36.5376 42.6807 36.1501 42.0753 36.1501C41.47 36.1501 40.9324 36.5376 40.7412 37.1118C40.1732 38.8162 38.8164 40.173 37.1121 40.741C36.5378 40.9321 36.1504 41.4697 36.1504 42.0751C36.1504 42.6804 36.5378 43.2177 37.1121 43.4092C38.8164 43.9772 40.1732 45.334 40.7412 47.0383C40.9324 47.6125 41.47 48 42.0753 48C42.6807 48 43.2179 47.6125 43.4094 47.0383C43.9774 45.3336 45.3342 43.9772 47.0386 43.4092C47.6128 43.2177 48.0002 42.6804 48.0002 42.0751C48.0002 41.4697 47.6128 40.9321 47.0386 40.741Z" fill="#E3FF04"/>
<path d="M0.96167 7.25903C2.66602 7.82703 4.02283 9.18384 4.59082 10.8882C4.78235 11.4628 5.31958 11.8499 5.92493 11.8499C6.53027 11.8499 7.06787 11.4628 7.25903 10.8882C7.82703 9.18384 9.18384 7.82703 10.8882 7.25903C11.4624 7.06787 11.8499 6.53027 11.8499 5.92493C11.8499 5.31958 11.4628 4.78235 10.8882 4.59082C9.18384 4.02283 7.82703 2.66602 7.25903 0.96167C7.06787 0.387451 6.53027 0 5.92493 0C5.31958 0 4.78235 0.387451 4.59082 0.96167C4.02283 2.66602 2.66638 4.02283 0.96167 4.59082C0.387451 4.78235 0 5.31958 0 5.92493C0 6.53027 0.387451 7.06787 0.96167 7.25903Z" fill="#E3FF04"/>
<path d="M13.8713 39.2251C11.4851 38.4198 9.58447 36.5206 8.77698 34.1355C8.60193 33.558 8.06543 33.1379 7.43079 33.1379C6.79907 33.1379 6.26477 33.5551 6.08716 34.1285C5.28149 36.5148 3.38232 38.4154 0.997192 39.2233C0.420044 39.3983 0 39.9344 0 40.5691C0 41.2008 0.416748 41.7355 0.990601 41.9127C3.37683 42.7184 5.27747 44.6176 6.08496 47.0027C6.26001 47.5798 6.79651 47.9999 7.43079 47.9999C8.06287 47.9999 8.59717 47.5828 8.77478 47.0093C9.58008 44.623 11.4796 42.7228 13.8647 41.9149C14.4419 41.7399 14.8616 41.2034 14.8616 40.5691C14.8616 39.937 14.4448 39.4027 13.8713 39.2251Z" fill="#E3FF04"/>
</g>
<defs>
<clipPath id="clip0_150_150">
<rect width="48" height="48" fill="white"/>
</clipPath>
</defs>
</svg>
