<svg width="48" height="48" viewBox="0 0 48 48" fill="none" xmlns="http://www.w3.org/2000/svg">
<g clip-path="url(#clip0_159_193)">
<path d="M21.1875 40.4689H8.93738C8.16101 40.4689 7.53113 39.839 7.53113 39.0626V34.344C7.53113 33.5673 6.90161 32.9377 6.12488 32.9377H1.40625C0.629517 32.9377 0 33.5673 0 34.344V46.5938C0 47.3705 0.629517 48 1.40625 48H21.1875C21.9642 48 22.5938 47.3705 22.5938 46.5938V41.8751C22.5938 41.0984 21.9642 40.4689 21.1875 40.4689Z" fill="#E3FF04"/>
<path d="M46.5938 40.4689H26.8125C26.0358 40.4689 25.4062 41.0984 25.4062 41.8751V46.5938C25.4062 47.3705 26.0358 48 26.8125 48H46.5938C47.3705 48 48 47.3705 48 46.5938V41.8751C48 41.0984 47.3705 40.4689 46.5938 40.4689Z" fill="#E3FF04"/>
<path d="M30.1248 6.12488V1.40625C30.1248 0.629517 29.4952 0 28.7185 0H16.4688C15.692 0 15.0625 0.629517 15.0625 1.40625V13.6564C15.0625 14.4327 15.692 15.0626 16.4688 15.0626H21.1874C21.9641 15.0626 22.5936 14.4327 22.5936 13.6564V8.93738C22.5936 8.16101 23.2231 7.53113 23.9999 7.53113H28.7185C29.4952 7.53113 30.1248 6.90161 30.1248 6.12488Z" fill="#E3FF04"/>
<path d="M46.5938 30.1249H41.8751C41.0984 30.1249 40.4689 29.4954 40.4689 28.7186V24C40.4689 23.2233 39.839 22.5938 39.0626 22.5938H34.344C33.5673 22.5938 32.9377 23.2233 32.9377 24V28.7186C32.9377 29.4954 32.3079 30.1249 31.5315 30.1249H26.8125C26.0358 30.1249 25.4062 30.7548 25.4062 31.5311V36.2498C25.4062 37.0265 26.0358 37.656 26.8125 37.656H46.5938C47.3705 37.656 48 37.0265 48 36.2498V31.5311C48 30.7548 47.3705 30.1249 46.5938 30.1249Z" fill="#E3FF04"/>
</g>
<defs>
<clipPath id="clip0_159_193">
<rect width="48" height="48" fill="white"/>
</clipPath>
</defs>
</svg>
