<svg width="48" height="48" viewBox="0 0 48 48" fill="none" xmlns="http://www.w3.org/2000/svg">
<g clip-path="url(#clip0_159_202)">
<path d="M37.3263 10.7483C37.4025 10.7446 37.4794 10.7439 37.5563 10.7439C38.7 10.7439 39.7902 11.0061 40.7625 11.4855C38.155 4.77173 31.6237 0 23.9999 0C16.3761 0 9.84473 4.77173 7.2373 11.4855C8.20959 11.0061 9.2998 10.7439 10.4435 10.7439C10.5204 10.7439 10.5973 10.7446 10.6735 10.7483C13.2439 6.02527 18.254 2.8125 23.9999 2.8125C29.7457 2.8125 34.7559 6.02527 37.3263 10.7483Z" fill="#E3FF04"/>
<path d="M41.7784 16.6688C41.2214 14.866 39.542 13.5564 37.5564 13.5564C35.116 13.5564 33.1377 15.5347 33.1377 17.9751V30.0249C33.1377 32.4653 35.116 34.4436 37.5564 34.4436C39.542 34.4436 41.2214 33.134 41.7784 31.3312C45.3025 30.7515 48 27.6855 48 24C48 20.3145 45.3025 17.2485 41.7784 16.6688Z" fill="#E3FF04"/>
<path d="M16.4689 39.1626C14.547 39.1626 12.9086 40.396 12.3018 42.1124C7.52747 41.5953 3.68994 37.9083 2.9447 33.2054C1.84863 32.67 0.849243 31.9398 0 31.0452V31.5308C0 38.5492 5.40015 44.3284 12.2626 44.9344C12.8357 46.7109 14.5042 48 16.4689 48C18.9053 48 20.8876 46.0177 20.8876 43.5813C20.8876 41.1449 18.9053 39.1626 16.4689 39.1626Z" fill="#E3FF04"/>
<path d="M6.22156 31.3312C6.77856 33.134 8.45801 34.4436 10.4436 34.4436C12.884 34.4436 14.8623 32.4653 14.8623 30.0249V17.9751C14.8623 15.5347 12.884 13.5564 10.4436 13.5564C8.45801 13.5564 6.77856 14.866 6.22156 16.6688C2.69751 17.2485 0 20.3145 0 24C0 27.6855 2.69751 30.7515 6.22156 31.3312Z" fill="#E3FF04"/>
</g>
<defs>
<clipPath id="clip0_159_202">
<rect width="48" height="48" fill="white"/>
</clipPath>
</defs>
</svg>
