<svg width="48" height="30" viewBox="0 0 48 30" fill="none" xmlns="http://www.w3.org/2000/svg">
<path fill-rule="evenodd" clip-rule="evenodd" d="M47.8404 21.8935L44.6229 8.22072C43.7564 4.53738 40.3613 0.750031 35.1911 0.750031H12.8094C9.02538 0.750031 4.56128 3.18789 3.37732 8.22072L0.159795 21.8935C-0.713616 25.6051 2.10364 29.1658 5.92138 29.1658C7.54369 29.1658 9.06969 28.3015 9.90355 26.911L12.3821 22.7809C12.8058 22.0741 13.5807 21.6354 14.4046 21.6354H33.5952C34.4191 21.6354 35.1944 22.0745 35.6181 22.7812L38.0963 26.9106C38.9305 28.3015 40.4565 29.1658 42.0806 29.1658C45.8925 29.1658 48.7145 25.6088 47.8404 21.8935ZM17.9759 12.5988H16.3697V14.205C16.3697 14.9813 15.7402 15.6108 14.9635 15.6108C14.1871 15.6108 13.5576 14.9813 13.5576 14.205V12.5988H11.9514C11.175 12.5988 10.5455 11.9692 10.5455 11.1929C10.5455 10.4162 11.175 9.78664 11.9514 9.78664H13.5576V8.18044C13.5576 7.40407 14.1871 6.77456 14.9635 6.77456C15.7402 6.77456 16.3697 7.40407 16.3697 8.18044V9.78664H17.9759C18.7523 9.78664 19.3818 10.4162 19.3818 11.1929C19.3818 11.9692 18.7523 12.5988 17.9759 12.5988ZM30.0242 12.5988C29.2482 12.5988 28.6184 11.9689 28.6184 11.1929C28.6184 10.4165 29.2486 9.78664 30.0242 9.78664C30.8006 9.78664 31.4305 10.4165 31.4305 11.1929C31.4305 11.9689 30.8006 12.5988 30.0242 12.5988ZM33.0367 15.6108C32.2607 15.6108 31.6304 14.981 31.6304 14.205C31.6304 13.429 32.2607 12.7987 33.0367 12.7987C33.8127 12.7987 34.4426 13.429 34.4426 14.205C34.4426 14.981 33.8127 15.6108 33.0367 15.6108ZM33.0367 9.58668C32.2607 9.58668 31.6304 8.9568 31.6304 8.18044C31.6304 7.40444 32.2607 6.77456 33.0367 6.77456C33.8127 6.77456 34.4426 7.40444 34.4426 8.18044C34.4426 8.9568 33.8127 9.58668 33.0367 9.58668ZM36.0488 12.5988C35.2728 12.5988 34.6425 11.9689 34.6425 11.1929C34.6425 10.4165 35.2728 9.78664 36.0488 9.78664C36.8248 9.78664 37.4547 10.4165 37.4547 11.1929C37.4547 11.9689 36.8248 12.5988 36.0488 12.5988Z" fill="#E3FF04"/>
</svg>
