<svg width="48" height="48" viewBox="0 0 48 48" fill="none" xmlns="http://www.w3.org/2000/svg">
<g clip-path="url(#clip0_159_184)">
<path d="M23.9995 7.85529L22.8086 9.7907H25.1908L23.9995 7.85529Z" fill="#E3FF04"/>
<path d="M24.0003 18.6281C29.136 18.6281 33.3145 14.45 33.3145 9.31429C33.3145 4.17857 29.136 0.00012207 24.0003 0.00012207C18.8646 0.00012207 14.6865 4.17857 14.6865 9.31429C14.6865 14.45 18.8646 18.6281 24.0003 18.6281ZM19.0953 10.4602L22.8028 4.43492C23.0588 4.01927 23.5122 3.76585 24.0003 3.76585C24.4889 3.76585 24.9422 4.01927 25.1982 4.43492L28.9057 10.4602C29.1727 10.8938 29.184 11.4383 28.9357 11.8829C28.6871 12.3278 28.2176 12.6032 27.7078 12.6032H20.2928C19.7831 12.6032 19.3136 12.3278 19.0649 11.8829C18.8166 11.4383 18.828 10.8938 19.0953 10.4602Z" fill="#E3FF04"/>
<path d="M8.46094 22.7706H10.1671V24.4768H8.46094V22.7706Z" fill="#E3FF04"/>
<path d="M18.628 23.6236C18.628 18.4878 14.4499 14.3098 9.31417 14.3098C4.17845 14.3098 0 18.4878 0 23.6236C0 28.7593 4.17808 32.9377 9.31417 32.9377C14.4499 32.9377 18.628 28.7593 18.628 23.6236ZM12.9796 25.8831C12.9796 26.6594 12.35 27.2893 11.5733 27.2893H7.05466C6.2783 27.2893 5.64842 26.6594 5.64842 25.8831V21.3644C5.64842 20.5877 6.2783 19.9582 7.05466 19.9582H11.5733C12.35 19.9582 12.9796 20.5877 12.9796 21.3644V25.8831Z" fill="#E3FF04"/>
<path d="M38.6862 14.3098C33.5505 14.3098 29.3721 18.4878 29.3721 23.6236C29.3721 28.7593 33.5502 32.9377 38.6862 32.9377C43.822 32.9377 48.0004 28.7593 48.0004 23.6236C48.0004 18.4878 43.822 14.3098 38.6862 14.3098ZM38.6862 27.6658C36.4571 27.6658 34.644 25.8523 34.644 23.6236C34.644 21.3948 36.4571 19.5813 38.6862 19.5813C40.915 19.5813 42.7281 21.3948 42.7281 23.6236C42.7281 25.8523 40.915 27.6658 38.6862 27.6658Z" fill="#E3FF04"/>
<path d="M38.6858 22.3938C38.0076 22.3938 37.4561 22.9457 37.4561 23.6235C37.4561 24.3018 38.0076 24.8533 38.6858 24.8533C39.3636 24.8533 39.9152 24.3018 39.9152 23.6235C39.9152 22.9457 39.3636 22.3938 38.6858 22.3938Z" fill="#E3FF04"/>
<path d="M24.0003 29.3719C18.8646 29.3719 14.6865 33.55 14.6865 38.6861C14.6865 43.8218 18.8646 47.9999 24.0003 47.9999C29.136 47.9999 33.3145 43.8218 33.3145 38.6861C33.3145 33.55 29.136 29.3719 24.0003 29.3719ZM27.2541 39.951C27.8034 40.5003 27.8034 41.3906 27.2541 41.9399C26.9794 42.2142 26.6195 42.3515 26.2598 42.3515C25.8999 42.3515 25.5399 42.2142 25.2656 41.9395L24.0003 40.6746L22.7354 41.9395C22.4608 42.2142 22.1008 42.3515 21.7412 42.3515C21.3812 42.3515 21.0212 42.2142 20.7469 41.9399C20.1976 41.3906 20.1976 40.5003 20.7469 39.951L22.0118 38.6861L20.7469 37.4209C20.1976 36.8719 20.1976 35.9813 20.7469 35.4323C21.2959 34.883 22.1865 34.883 22.7354 35.4323L24.0003 36.6972L25.2652 35.4323C25.8145 34.883 26.7048 34.883 27.2541 35.4323C27.8034 35.9817 27.8034 36.8719 27.2541 37.4209L25.9892 38.6861L27.2541 39.951Z" fill="#E3FF04"/>
</g>
<defs>
<clipPath id="clip0_159_184">
<rect width="48" height="48" fill="white"/>
</clipPath>
</defs>
</svg>
