<svg width="13" height="8" viewBox="0 0 13 8" fill="none" xmlns="http://www.w3.org/2000/svg">
<path d="M8.50391 0.359375C8.61328 0.222656 8.83203 0.222656 8.96875 0.359375L12.1406 3.53125C12.2773 3.66797 12.2773 3.85938 12.1406 3.99609L8.96875 7.16797C8.83203 7.30469 8.61328 7.30469 8.50391 7.16797L8.28516 6.97656C8.17578 6.83984 8.17578 6.64844 8.28516 6.51172L10.582 4.21484H0.328125C0.136719 4.21484 0 4.07812 0 3.88672V3.61328C0 3.44922 0.136719 3.28516 0.328125 3.28516H10.582L8.28516 1.01562C8.17578 0.878906 8.17578 0.6875 8.28516 0.550781L8.50391 0.359375Z" fill="#111111"/>
</svg>
