<svg width="50" height="50" viewBox="0 0 50 50" fill="none" xmlns="http://www.w3.org/2000/svg">
<g clip-path="url(#clip0_49_82)">
<path d="M48.7382 41.9426C48.7382 41.9426 45.4033 38.609 43.3983 36.6051L36.6196 43.3838L41.9613 48.7232C44.3616 51.1303 47.4759 49.5884 48.5371 48.5237C50.1523 46.9235 50.7149 43.9255 48.7408 41.9453C48.7401 41.9445 48.7393 41.9438 48.7382 41.9426Z" fill="#E3FF04"/>
<path d="M42.2264 27.7337C40.5972 26.1044 37.9555 26.1044 36.3262 27.7337L27.7493 36.3106C26.12 37.9399 26.12 40.5816 27.7493 42.2108C29.3785 43.8401 32.0198 43.8401 33.6491 42.2108L42.2264 33.6335C43.8557 32.0042 43.8557 29.3629 42.2264 27.7337Z" fill="#E3FF04"/>
<path d="M1.26191 41.9426C1.26076 41.9438 1.26 41.9445 1.25924 41.9449C-0.714868 43.9255 -0.1522 46.9231 1.46294 48.5237C2.52419 49.5884 5.63851 51.1299 8.03872 48.7229L13.3804 43.3834L6.60172 36.6051C4.59672 38.609 1.26191 41.9426 1.26191 41.9426Z" fill="#E3FF04"/>
<path d="M13.0119 22.9282L22.9282 13.0119L10.3455 0.429153C10.0712 0.154114 9.69848 0 9.30977 0H1.46484C0.655746 0 0 0.655746 0 1.46484V9.30977C0 9.69848 0.154114 10.0712 0.429153 10.3455L13.0119 22.9282Z" fill="#E3FF04"/>
<path d="M50.0002 9.30977V1.46484C50.0002 0.655746 49.3444 0 48.5353 0H40.6904C40.3017 0 39.9294 0.154114 39.6547 0.429153L15.0835 25L25.0002 34.9167L49.571 10.3458C49.8461 10.0712 50.0002 9.69849 50.0002 9.30977Z" fill="#E3FF04"/>
<path d="M13.6739 27.7337C12.0446 26.1044 9.40296 26.1044 7.7737 27.7337C6.14444 29.3629 6.14444 32.0042 7.7737 33.6335L16.3507 42.2108C17.9799 43.8401 20.6216 43.8401 22.2509 42.2108C23.8801 40.5816 23.8801 37.9399 22.2509 36.3106L13.6739 27.7337Z" fill="#E3FF04"/>
</g>
<defs>
<clipPath id="clip0_49_82">
<rect width="50" height="50" fill="white"/>
</clipPath>
</defs>
</svg>
