<svg width="50" height="50" viewBox="0 0 50 50" fill="none" xmlns="http://www.w3.org/2000/svg">
<g clip-path="url(#clip0_50_92)">
<path d="M18.7239 26.4388C17.8011 26.4388 17.0508 27.1896 17.0508 28.112C17.0508 29.0347 17.8011 29.7851 18.7239 29.7851C19.6463 29.7851 20.397 29.0347 20.397 28.112C20.397 27.1896 19.6463 26.4388 18.7239 26.4388Z" fill="#E3FF04"/>
<path d="M18.7239 20.163C17.8011 20.163 17.0508 20.9133 17.0508 21.8361C17.0508 22.7585 17.8011 23.5092 18.7239 23.5092C19.6463 23.5092 20.397 22.7585 20.397 21.8361C20.397 20.9133 19.6463 20.163 18.7239 20.163Z" fill="#E3FF04"/>
<path d="M18.724 15.4556C13.4754 15.4556 9.20557 19.7257 9.20557 24.974C9.20557 30.2223 13.4754 34.4921 18.724 34.4921C23.9723 34.4921 28.2421 30.2223 28.2421 24.974C28.2421 19.7257 23.9723 15.4556 18.724 15.4556ZM23.3268 28.112C23.3268 30.6499 21.2619 32.7148 18.724 32.7148C16.1861 32.7148 14.1212 30.6499 14.1212 28.112C14.1212 26.9 14.5927 25.7968 15.361 24.974C14.5927 24.1512 14.1212 23.048 14.1212 21.836C14.1212 19.2977 16.1857 17.2332 18.724 17.2332C21.2619 17.2332 23.3268 19.2977 23.3268 21.836C23.3268 23.048 22.8549 24.1512 22.087 24.974C22.8553 25.7968 23.3268 26.9 23.3268 28.112Z" fill="#E3FF04"/>
<path d="M37.4481 24.9741C37.4481 14.6496 29.0485 6.25 18.7241 6.25C8.39958 6.25 0 14.6496 0 24.9741C0 35.2985 8.39958 43.6981 18.7241 43.6981C29.0482 43.6981 37.4481 35.2985 37.4481 24.9741ZM18.7241 37.4218C11.8603 37.4218 6.27594 31.8378 6.27594 24.9741C6.27594 18.1103 11.8603 12.5259 18.7241 12.5259C25.5878 12.5259 31.1718 18.1103 31.1718 24.9741C31.1718 31.8378 25.5878 37.4218 18.7241 37.4218Z" fill="#E3FF04"/>
<path d="M48.2121 16.9945C46.9803 19.0514 46.2368 21.9586 46.2368 24.9741C46.2368 27.9896 46.9803 30.8968 48.2121 32.9537C49.358 30.5317 50 27.8267 50 24.9741C50 22.1215 49.358 19.4165 48.2121 16.9945Z" fill="#E3FF04"/>
<path d="M46.5845 14.2056C43.1921 9.39713 37.5948 6.25 31.2757 6.25C30.7458 6.25 30.2209 6.27327 29.7021 6.31676C36.0857 10.0876 40.3776 17.0383 40.3776 24.9741C40.3776 32.9098 36.0857 39.8605 29.7021 43.6314C30.2213 43.6745 30.7458 43.6981 31.2757 43.6981C37.5948 43.6981 43.1921 40.551 46.5845 35.7426C44.5398 33.1638 43.3073 29.184 43.3073 24.9741C43.3073 20.7638 44.5394 16.7843 46.5845 14.2056Z" fill="#E3FF04"/>
</g>
<defs>
<clipPath id="clip0_50_92">
<rect width="50" height="50" fill="white"/>
</clipPath>
</defs>
</svg>
