<svg width="50" height="50" viewBox="0 0 50 50" fill="none" xmlns="http://www.w3.org/2000/svg">
<g clip-path="url(#clip0_50_99)">
<path d="M45.3974 36.087H31.2762C28.7382 36.087 26.6733 38.1523 26.6733 40.6902V45.3972C26.6733 47.9351 28.7382 50 31.2762 50H45.3974C47.9353 50 50.0002 47.9351 50.0002 45.3972V40.6902C50.0002 38.1523 47.9353 36.087 45.3974 36.087ZM34.0742 44.5084H33.9701V44.6125C33.9701 45.4216 33.3143 46.0773 32.5052 46.0773C31.6962 46.0773 31.0404 45.4216 31.0404 44.6125V44.5084H30.9363C30.1272 44.5084 29.4714 43.8526 29.4714 43.0435C29.4714 42.2348 30.1272 41.5787 30.9363 41.5787H31.0404V41.4745C31.0404 40.6654 31.6962 40.0097 32.5052 40.0097C33.3143 40.0097 33.9701 40.6654 33.9701 41.4745V41.5787H34.0742C34.8829 41.5787 35.5391 42.2344 35.5391 43.0435C35.5391 43.8526 34.8829 44.5084 34.0742 44.5084ZM41.9852 44.5084C41.1764 44.5084 40.5203 43.8522 40.5203 43.0435C40.5203 42.2352 41.1764 41.5787 41.9852 41.5787C42.7935 41.5787 43.45 42.2352 43.45 43.0435C43.45 43.8522 42.7935 44.5084 41.9852 44.5084ZM46.3518 44.5084C45.5435 44.5084 44.887 43.8522 44.887 43.0435C44.887 42.2352 45.5435 41.5787 46.3518 41.5787C47.1606 41.5787 47.8167 42.2352 47.8167 43.0435C47.8167 43.8522 47.1606 44.5084 46.3518 44.5084Z" fill="#E3FF04"/>
<path d="M18.7241 36.087H4.60281C2.0649 36.087 0 38.1523 0 40.6902V45.3972C0 47.9351 2.0649 50 4.60281 50H18.7241C21.262 50 23.3269 47.9351 23.3269 45.3972V40.6902C23.3269 38.1523 21.262 36.087 18.7241 36.087ZM7.40051 44.5084H7.29675V44.6125C7.29675 45.4216 6.64062 46.0773 5.83191 46.0773C5.02281 46.0773 4.36707 45.4216 4.36707 44.6125V44.5084H4.26254C3.45383 44.5084 2.7977 43.8526 2.7977 43.0435C2.7977 42.2348 3.45383 41.5787 4.26254 41.5787H4.36668V41.4745C4.36668 40.6654 5.02281 40.0097 5.83153 40.0097C6.64062 40.0097 7.29637 40.6654 7.29637 41.4745V41.5787H7.40051C8.20961 41.5787 8.86536 42.2344 8.86536 43.0435C8.86536 43.8526 8.20961 44.5084 7.40051 44.5084ZM15.3114 44.5084C14.5031 44.5084 13.8466 43.8522 13.8466 43.0435C13.8466 42.2352 14.5031 41.5787 15.3114 41.5787C16.1201 41.5787 16.7763 42.2352 16.7763 43.0435C16.7763 43.8522 16.1201 44.5084 15.3114 44.5084ZM19.6785 44.5084C18.8698 44.5084 18.2137 43.8522 18.2137 43.0435C18.2137 42.2352 18.8698 41.5787 19.6785 41.5787C20.4872 41.5787 21.1433 42.2352 21.1433 43.0435C21.1433 43.8522 20.4872 44.5084 19.6785 44.5084Z" fill="#E3FF04"/>
<path d="M48.5352 0H42.6575L33.8806 8.77647C33.3088 9.34868 32.3814 9.34868 31.8092 8.77647C31.237 8.20465 31.237 7.2773 31.8092 6.70509L38.5143 0H1.46484C0.655746 0 0 0.655746 0 1.46484V29.707C0 30.5161 0.655746 31.1718 1.46484 31.1718H7.34253L16.1194 22.3953C16.6912 21.8231 17.6186 21.8231 18.1908 22.3953C18.763 22.9671 18.763 23.8949 18.1908 24.4667L11.4857 31.1718H48.5352C49.3443 31.1718 50 30.5161 50 29.707V1.46484C50 0.655746 49.3443 0 48.5352 0ZM23.719 16.3704C23.719 16.6874 23.6164 16.9956 23.4261 17.2493L21.0724 20.3873C20.7958 20.7561 20.3617 20.9732 19.9005 20.9732C19.4397 20.9732 19.0056 20.7561 18.7286 20.3873L16.3754 17.2493C16.185 16.9956 16.0824 16.6874 16.0824 16.3704V11.6634C16.0824 10.8543 16.7381 10.1986 17.5472 10.1986C18.3563 10.1986 19.0121 10.8543 19.0121 11.6634V15.8821L19.9005 17.067L20.7893 15.8821V11.6634C20.7893 10.8543 21.4455 10.1986 22.2542 10.1986C23.0633 10.1986 23.719 10.8543 23.719 11.6634V16.3704ZM30.7796 20.9732H27.2495C26.4404 20.9732 25.7847 20.3175 25.7847 19.5084C25.7847 18.6996 26.4404 18.0435 27.2495 18.0435H30.7796C31.0471 18.0435 31.2759 17.8284 31.2759 17.5472C31.2759 17.2733 31.0535 17.0509 30.7796 17.0509H28.4264C26.5369 17.0509 25 15.514 25 13.6246C25 11.7317 26.5312 10.1986 28.4264 10.1986H31.9565C32.7652 10.1986 33.4213 10.8543 33.4213 11.6634C33.4213 12.4725 32.7652 13.1283 31.9565 13.1283H28.4264C28.1532 13.1283 27.9297 13.348 27.9297 13.6246C27.9297 13.8985 28.1525 14.1212 28.4264 14.1212H30.7796C32.6687 14.1212 34.2056 15.6582 34.2056 17.5472C34.2056 19.4405 32.6748 20.9732 30.7796 20.9732Z" fill="#E3FF04"/>
</g>
<defs>
<clipPath id="clip0_50_99">
<rect width="50" height="50" fill="white"/>
</clipPath>
</defs>
</svg>
