<svg width="48" height="48" viewBox="0 0 48 48" fill="none" xmlns="http://www.w3.org/2000/svg">
<g clip-path="url(#clip0_150_163)">
<path d="M3.09375 10.4435V27.012C3.09375 27.3851 3.2417 27.7433 3.50537 28.0066L6.20618 30.7078V6.74805L3.50537 9.44885C3.2417 9.71326 3.09375 10.0707 3.09375 10.4435Z" fill="#E3FF04"/>
<path d="M44.457 9.44885L41.7559 6.74805V30.7078L44.457 28.0066C44.7203 27.7433 44.8687 27.3851 44.8687 27.012V10.4435C44.8687 10.0707 44.7203 9.71326 44.457 9.44885Z" fill="#E3FF04"/>
<path d="M34.5248 0H26.7618C26.2803 0 25.8181 0.0823974 25.3875 0.232544V7.76147C27.1368 8.35107 28.3995 10.0049 28.3995 11.9502V16.4692C28.3995 18.4135 27.1368 20.068 25.3875 20.6569V24C25.3875 24.7764 24.7572 25.4062 23.9812 25.4062C23.2048 25.4062 22.575 24.7764 22.575 24V20.6569C20.8256 20.068 19.5629 18.4135 19.5629 16.4692V11.9502C19.5629 10.0049 20.8256 8.35107 22.575 7.76147V0.232544C22.1439 0.0823974 21.6818 0 21.2006 0H13.4373C10.9738 0 9.01855 1.99915 9.01855 4.4187V33.0374C9.01855 41.2877 15.7308 48 23.9812 48C32.2316 48 38.9435 41.2877 38.9435 33.0374V4.4187C38.9435 1.9552 36.9443 0 34.5248 0ZM28.4999 39.7156H19.4625C18.6858 39.7156 18.0563 39.0861 18.0563 38.3093C18.0563 37.5326 18.6858 36.9031 19.4625 36.9031H28.4999C29.2766 36.9031 29.9061 37.5326 29.9061 38.3093C29.9061 39.0861 29.2766 39.7156 28.4999 39.7156Z" fill="#E3FF04"/>
<path d="M22.375 16.4692C22.375 17.354 23.095 18.0751 23.9808 18.0751C24.8667 18.0751 25.5867 17.354 25.5867 16.4692V11.9502C25.5867 11.0643 24.8667 10.3433 23.9808 10.3433C23.095 10.3433 22.375 11.0643 22.375 11.9502V16.4692Z" fill="#E3FF04"/>
</g>
<defs>
<clipPath id="clip0_150_163">
<rect width="48" height="48" fill="white"/>
</clipPath>
</defs>
</svg>
