<svg width="48" height="48" viewBox="0 0 48 48" fill="none" xmlns="http://www.w3.org/2000/svg">
<g clip-path="url(#clip0_150_202)">
<path d="M7.60343 16.9074C7.78361 17.4472 8.27067 17.8252 8.83793 17.8654C9.40519 17.9061 9.94095 17.6007 10.1955 17.0916L12.9984 11.486L18.604 8.68307C19.0827 8.44393 19.3815 7.95541 19.3815 7.42587C19.3815 6.56271 18.7029 6.18588 18.4198 6.09139L4.86344 1.57272C4.35807 1.40426 3.80106 1.53573 3.4246 1.91219C3.04777 2.28902 2.91666 2.8464 3.08475 3.3514L7.60343 16.9074Z" fill="#E3FF04"/>
<path d="M15.0945 13.5818L14.4316 14.9078L20.0226 20.4988L22.0111 18.5099L16.4202 12.9189L15.0945 13.5818Z" fill="#E3FF04"/>
<path d="M47.5891 35.0502C47.5891 35.0502 46.4224 33.882 45.2769 32.739C43.5919 31.0497 41.347 30.1191 38.9557 30.1191H33.6204L27.9778 24.4766L25.9893 26.4655L31.6315 32.1077V37.4448C31.6315 39.827 32.5609 42.0708 34.2506 43.7649C35.3965 44.9086 36.5614 46.075 36.5614 46.0753C36.8811 46.3954 37.3348 46.5422 37.7812 46.4697C38.2277 46.3976 38.6122 46.1149 38.8143 45.7106L41.6173 40.1046L47.2229 37.3016C47.425 37.2009 48.0004 36.8241 48.0004 36.0441C48.0004 35.6742 47.8546 35.316 47.5891 35.0502Z" fill="#E3FF04"/>
<path d="M32.9055 13.5818L31.5798 12.9189L14.38 30.1188H9.04468C6.65332 30.1188 4.40845 31.0493 2.72351 32.7386C1.578 33.8816 0.411255 35.0498 0.411255 35.0498C0.145752 35.3157 0 35.6738 0 36.0437C0 36.8237 0.575317 37.2006 0.777466 37.3013L6.38306 40.1042L9.18604 45.7102C9.38818 46.1145 9.77271 46.3972 10.2191 46.4694C10.6655 46.5419 11.1193 46.395 11.439 46.075C11.439 46.0746 12.6039 44.9082 13.7498 43.7645C15.4395 42.0704 16.3689 39.8267 16.3689 37.4445V32.1073L33.5684 14.9078L32.9055 13.5818Z" fill="#E3FF04"/>
<path d="M29.3966 8.68294L35.0022 11.4859L37.8052 17.0915C38.0597 17.6002 38.5955 17.906 39.1627 17.8653C39.73 17.825 40.217 17.4471 40.3972 16.9073L44.9159 3.35127C45.084 2.8459 44.9529 2.28889 44.576 1.91206C44.1992 1.53523 43.6422 1.40376 43.1368 1.57222L29.5808 6.09126C29.2977 6.18538 28.6191 6.56257 28.6191 7.42573C28.6191 7.95528 28.918 8.4438 29.3966 8.68294Z" fill="#E3FF04"/>
</g>
<defs>
<clipPath id="clip0_150_202">
<rect width="48" height="48" fill="white"/>
</clipPath>
</defs>
</svg>
