<svg width="48" height="48" viewBox="0 0 48 48" fill="none" xmlns="http://www.w3.org/2000/svg">
<path fill-rule="evenodd" clip-rule="evenodd" d="M13.3564 22.5813H30.1249C31.6783 22.5813 32.9374 21.3219 32.9374 19.7688V3C32.9374 1.44653 31.6783 0.1875 30.1249 0.1875H13.3564C11.803 0.1875 10.5439 1.44653 10.5439 3V19.7688C10.5439 21.3219 11.803 22.5813 13.3564 22.5813ZM25.5062 6.2124C26.2826 6.2124 26.9125 6.84229 26.9125 7.61865C26.9125 8.39502 26.2826 9.0249 25.5062 9.0249C24.7299 9.0249 24.1 8.39502 24.1 7.61865C24.1 6.84229 24.7299 6.2124 25.5062 6.2124ZM25.5062 13.7435C26.2826 13.7435 26.9125 14.3738 26.9125 15.1498C26.9125 15.9261 26.2826 16.556 25.5062 16.556C24.7299 16.556 24.1 15.9261 24.1 15.1498C24.1 14.3738 24.7299 13.7435 25.5062 13.7435ZM17.9751 6.2124C18.7511 6.2124 19.3813 6.84229 19.3813 7.61865C19.3813 8.39502 18.7511 9.0249 17.9751 9.0249C17.1987 9.0249 16.5688 8.39502 16.5688 7.61865C16.5688 6.84229 17.1987 6.2124 17.9751 6.2124ZM17.9751 13.7435C18.7511 13.7435 19.3813 14.3738 19.3813 15.1498C19.3813 15.9261 18.7511 16.556 17.9751 16.556C17.1987 16.556 16.5688 15.9261 16.5688 15.1498C16.5688 14.3738 17.1987 13.7435 17.9751 13.7435Z" fill="#E3FF04"/>
<path fill-rule="evenodd" clip-rule="evenodd" d="M45.1877 25.3936H28.4189C26.8658 25.3936 25.6064 26.6526 25.6064 28.2061V44.9745C25.6064 46.528 26.8658 47.787 28.4189 47.787H45.1877C46.7412 47.787 48.0002 46.528 48.0002 44.9745V28.2061C48.0002 26.6526 46.7412 25.3936 45.1877 25.3936ZM33.0376 41.7621C32.2616 41.7621 31.6313 41.1322 31.6313 40.3558C31.6313 39.5798 32.2616 38.9496 33.0376 38.9496C33.814 38.9496 34.4438 39.5798 34.4438 40.3558C34.4438 41.1322 33.814 41.7621 33.0376 41.7621ZM33.0376 34.231C32.2616 34.231 31.6313 33.6011 31.6313 32.8247C31.6313 32.0483 32.2616 31.4185 33.0376 31.4185C33.814 31.4185 34.4438 32.0483 34.4438 32.8247C34.4438 33.6011 33.814 34.231 33.0376 34.231ZM36.8033 37.9967C36.027 37.9967 35.3971 37.3665 35.3971 36.5905C35.3971 35.8141 36.027 35.1842 36.8033 35.1842C37.5797 35.1842 38.2096 35.8141 38.2096 36.5905C38.2096 37.3665 37.5797 37.9967 36.8033 37.9967ZM40.5691 41.7621C39.7927 41.7621 39.1628 41.1322 39.1628 40.3558C39.1628 39.5798 39.7927 38.9496 40.5691 38.9496C41.3451 38.9496 41.9753 39.5798 41.9753 40.3558C41.9753 41.1322 41.3451 41.7621 40.5691 41.7621ZM40.5691 34.231C39.7927 34.231 39.1628 33.6011 39.1628 32.8247C39.1628 32.0483 39.7927 31.4185 40.5691 31.4185C41.3451 31.4185 41.9753 32.0483 41.9753 32.8247C41.9753 33.6011 41.3451 34.231 40.5691 34.231Z" fill="#E3FF04"/>
<path fill-rule="evenodd" clip-rule="evenodd" d="M19.5813 25.3936H2.8125C1.25903 25.3936 0 26.6526 0 28.2061V44.9745C0 46.528 1.25903 47.787 2.8125 47.787H19.5813C21.1344 47.787 22.3938 46.528 22.3938 44.9745V28.2061C22.3938 26.6526 21.1344 25.3936 19.5813 25.3936ZM7.43115 34.231C6.65515 34.231 6.0249 33.6011 6.0249 32.8247C6.0249 32.0483 6.65515 31.4185 7.43115 31.4185C8.20752 31.4185 8.8374 32.0483 8.8374 32.8247C8.8374 33.6011 8.20752 34.231 7.43115 34.231ZM11.1969 37.9967C10.4205 37.9967 9.79065 37.3665 9.79065 36.5905C9.79065 35.8141 10.4205 35.1842 11.1969 35.1842C11.9733 35.1842 12.6031 35.8141 12.6031 36.5905C12.6031 37.3665 11.9733 37.9967 11.1969 37.9967ZM14.9626 41.7621C14.1863 41.7621 13.5564 41.1322 13.5564 40.3558C13.5564 39.5798 14.1863 38.9496 14.9626 38.9496C15.7386 38.9496 16.3689 39.5798 16.3689 40.3558C16.3689 41.1322 15.7386 41.7621 14.9626 41.7621Z" fill="#E3FF04"/>
</svg>
