<svg width="48" height="48" viewBox="0 0 48 48" fill="none" xmlns="http://www.w3.org/2000/svg">
<g clip-path="url(#clip0_150_221)">
<path d="M20.3956 34.5703C20.1071 34.5703 19.8287 34.4352 19.6522 34.2085C19.4743 33.9796 19.4094 33.6742 19.4779 33.3966L19.716 32.4448C18.744 32.6232 17.7512 32.7158 16.7478 32.7188C16.4695 33.8474 16.72 35.0204 17.4334 35.9363C18.1383 36.8427 19.2454 37.3828 20.3956 37.3828C21.172 37.3828 21.8019 36.7537 21.8019 35.9766C21.8019 35.2002 21.172 34.5703 20.3956 34.5703Z" fill="#E3FF04"/>
<path d="M4.09761 30.0054C3.58015 32.0708 3.02791 34.2794 2.60969 35.9519C1.66084 39.7451 4.52021 43.4625 8.47749 43.4625C10.0599 43.4625 11.4324 42.3888 11.8151 40.8533C12.1967 39.3298 13.0255 36.0131 13.8494 32.7186H13.2298C9.91926 32.7186 6.76289 31.7354 4.09761 30.0054Z" fill="#E3FF04"/>
<path d="M2.96185 11.2324C5.84466 9.00476 9.43646 7.71277 13.23 7.71277H16.2919C14.046 5.67297 11.0811 4.5 8.00347 4.5H1.40618C0.899711 4.5 0.43206 4.77246 0.182304 5.21338C-0.0670857 5.6543 -0.0601276 6.19556 0.200248 6.62988L2.96185 11.2324Z" fill="#E3FF04"/>
<path d="M26.2068 14.2699C23.67 11.9196 20.2914 10.5254 16.6948 10.5254H13.2301C7.36963 10.5254 2.08704 14.2267 0.0842286 19.7356C0.0289307 19.889 0 20.0513 0 20.2153V20.2164C0 20.3794 0.0289307 20.5427 0.0842286 20.6965C2.08704 26.2051 7.36963 29.9064 13.2301 29.9064H16.6948C20.2921 29.9064 23.6708 28.5122 26.2079 26.1611C25.0067 24.4839 24.2999 22.4309 24.2999 20.2153C24.2999 18.0001 25.0067 15.9471 26.2068 14.2699ZM16.4689 24.4344H10.4436C9.66724 24.4344 9.03735 23.8049 9.03735 23.0282C9.03735 22.2518 9.66724 21.6219 10.4436 21.6219H16.4689C17.2452 21.6219 17.8751 22.2518 17.8751 23.0282C17.8751 23.8049 17.2452 24.4344 16.4689 24.4344ZM19.4813 18.8094H13.4561C12.6797 18.8094 12.0498 18.1799 12.0498 17.4032C12.0498 16.6268 12.6797 15.9969 13.4561 15.9969H19.4813C20.2581 15.9969 20.8876 16.6268 20.8876 17.4032C20.8876 18.1799 20.2581 18.8094 19.4813 18.8094Z" fill="#E3FF04"/>
<path d="M44.7847 17.0024C43.5187 17.0024 42.4215 17.7404 41.8997 18.809H38.7627V21.6215H41.8993C42.4211 22.6908 43.5183 23.4291 44.7847 23.4291C46.5575 23.4291 48 21.9877 48 20.2156C48 18.4438 46.5575 17.0024 44.7847 17.0024Z" fill="#E3FF04"/>
<path d="M34.5438 12.7842C30.4459 12.7842 27.1123 16.1178 27.1123 20.2153C27.1123 24.3132 30.4459 27.6469 34.5438 27.6469C35.3202 27.6469 35.9501 27.017 35.9501 26.2406V14.1904C35.9501 13.4137 35.3202 12.7842 34.5438 12.7842Z" fill="#E3FF04"/>
</g>
<defs>
<clipPath id="clip0_150_221">
<rect width="48" height="48" fill="white"/>
</clipPath>
</defs>
</svg>
