<svg width="41" height="41" viewBox="0 0 41 41" fill="none" xmlns="http://www.w3.org/2000/svg">
<g clip-path="url(#clip0_69_296)">
<path d="M10.6992 18.012C10.7592 17.9072 10.8305 17.8046 10.9122 17.7036L10.9187 17.6942L10.9563 17.6501L18.3651 9.00635H14.0674C13.7487 9.00635 13.4428 9.13303 13.2175 9.35794L4.56348 18.012H10.6992Z" fill="#E3FF04"/>
<path d="M27.1897 18.012L20.5001 10.2075L13.811 18.012H27.1897Z" fill="#E3FF04"/>
<path d="M30.0955 17.7142C30.174 17.8118 30.2422 17.9113 30.3007 18.012H36.4364L27.7823 9.35794C27.5571 9.13303 27.2511 9.00635 26.9324 9.00635H22.6348L30.0508 17.6589L30.0955 17.7142Z" fill="#E3FF04"/>
<path d="M4.53467 20.4141L16.8426 33.7471L10.6888 20.4141H4.53467Z" fill="#E3FF04"/>
<path d="M13.3354 20.4141L20.4999 35.9389L27.6654 20.4141H13.3354Z" fill="#E3FF04"/>
<path d="M30.311 20.4141L24.1572 33.7471L36.4652 20.4141H30.311Z" fill="#E3FF04"/>
<path d="M29.1518 7.49481C31.19 8.18298 32.8135 9.8055 33.5035 11.8428C33.6531 12.3358 34.111 12.6943 34.6531 12.6943C35.1927 12.6943 35.6494 12.3383 35.8008 11.8484C36.489 9.8102 38.1112 8.18674 40.1488 7.49669C40.6414 7.34717 41.0002 6.88922 41.0002 6.34713C41.0002 5.80754 40.6439 5.35085 40.1541 5.19945C38.1159 4.51128 36.4927 2.88938 35.8027 0.851768C35.6531 0.358788 35.1952 0 34.6531 0C34.1132 0 33.6568 0.356285 33.5051 0.846138C32.8169 2.88438 31.1947 4.50784 29.1574 5.19757C28.6645 5.34709 28.3057 5.80535 28.3057 6.34713C28.306 6.88703 28.6619 7.34341 29.1518 7.49481Z" fill="#E3FF04"/>
<path d="M40.1787 34.7997C38.7226 34.3146 37.564 33.1556 37.0788 31.6998C36.9152 31.2094 36.4564 30.8784 35.9393 30.8784C35.4222 30.8784 34.963 31.2094 34.7997 31.6998C34.3146 33.1556 33.1556 34.3146 31.6998 34.7997C31.2094 34.963 30.8784 35.4222 30.8784 35.9393C30.8784 36.4564 31.2094 36.9152 31.6998 37.0788C33.1556 37.564 34.3146 38.7229 34.7997 40.1787C34.963 40.6692 35.4222 41.0002 35.9393 41.0002C36.4564 41.0002 36.9152 40.6692 37.0788 40.1787C37.564 38.7226 38.7229 37.564 40.1787 37.0788C40.6692 36.9152 41.0002 36.4564 41.0002 35.9393C41.0002 35.4222 40.6692 34.963 40.1787 34.7997Z" fill="#E3FF04"/>
<path d="M0.821426 6.20042C2.27722 6.68558 3.43616 7.84453 3.92133 9.30032C4.08492 9.79111 4.54381 10.1217 5.06087 10.1217C5.57794 10.1217 6.03714 9.79111 6.20042 9.30032C6.68558 7.84453 7.84453 6.68558 9.30032 6.20042C9.7908 6.03714 10.1217 5.57794 10.1217 5.06087C10.1217 4.54381 9.79111 4.08492 9.30032 3.92133C7.84453 3.43616 6.68558 2.27722 6.20042 0.821426C6.03714 0.330948 5.57794 0 5.06087 0C4.54381 0 4.08492 0.330948 3.92133 0.821426C3.43616 2.27722 2.27753 3.43616 0.821426 3.92133C0.330948 4.08492 0 4.54381 0 5.06087C0 5.57794 0.330948 6.03714 0.821426 6.20042Z" fill="#E3FF04"/>
<path d="M11.8484 33.5051C9.8102 32.8173 8.18674 31.195 7.497 29.1577C7.34748 28.6645 6.88922 28.3057 6.34713 28.3057C5.80754 28.3057 5.35116 28.6619 5.19945 29.1518C4.51128 31.19 2.88907 32.8135 0.851768 33.5035C0.358788 33.6531 0 34.111 0 34.6531C0 35.1927 0.355972 35.6494 0.846138 35.8008C2.88438 36.489 4.50784 38.1112 5.19757 40.1485C5.34709 40.6414 5.80535 41.0002 6.34713 41.0002C6.88703 41.0002 7.34341 40.6439 7.49512 40.1541C8.18298 38.1159 9.8055 36.4927 11.8428 35.8027C12.3358 35.6531 12.6943 35.1949 12.6943 34.6531C12.6943 34.1132 12.3383 33.6568 11.8484 33.5051Z" fill="#E3FF04"/>
</g>
<defs>
<clipPath id="clip0_69_296">
<rect width="41" height="41" fill="white"/>
</clipPath>
</defs>
</svg>
