<svg width="41" height="41" viewBox="0 0 41 41" fill="none" xmlns="http://www.w3.org/2000/svg">
<g clip-path="url(#clip0_69_308)">
<path d="M40.6746 5.08903L39.6051 4.01955V2.50682C39.6051 1.89278 39.1074 1.39511 38.4934 1.39511H36.9807L35.9112 0.32563C35.7029 0.116989 35.4201 0 35.1251 0C34.8301 0 34.5477 0.116989 34.339 0.32563L33.2695 1.39511H31.7568C31.1428 1.39511 30.6451 1.8931 30.6451 2.50713V4.01955L29.5756 5.08903C29.1415 5.5232 29.1415 6.22701 29.5756 6.66119L30.6451 7.73067V9.24339C30.6451 9.85743 31.1431 10.3551 31.7571 10.3551H33.2695L34.339 11.4246C34.5477 11.6329 34.8304 11.7502 35.1251 11.7502C35.4201 11.7502 35.7029 11.6332 35.9112 11.4246L36.9807 10.3551H38.4934C39.1074 10.3551 39.6051 9.85712 39.6051 9.24339V7.73067L40.6746 6.66119C41.1088 6.22701 41.1088 5.5232 40.6746 5.08903Z" fill="#E3FF04"/>
<path d="M21.7011 12.3437V10.2075C21.7011 9.54406 21.1634 9.00635 20.5 9.00635H7.63428C6.97082 9.00635 6.43311 9.54406 6.43311 10.2075V12.3437C8.71627 11.1437 11.3135 10.4637 14.0671 10.4637C16.8204 10.4637 19.4176 11.1437 21.7011 12.3437Z" fill="#E3FF04"/>
<path d="M8.92079 21.7012C8.16443 21.7012 7.54883 22.3168 7.54883 23.0731C7.54883 23.8298 8.16443 24.4451 8.92079 24.4451C9.67747 24.4451 10.2928 23.8298 10.2928 23.0731C10.2928 22.3168 9.67747 21.7012 8.92079 21.7012Z" fill="#E3FF04"/>
<path d="M14.0672 12.8662C6.31053 12.8662 0 19.1767 0 26.9331C0 34.6897 6.31053 41.0002 14.0672 41.0002C21.8238 41.0002 28.1343 34.6897 28.1343 26.9331C28.134 19.1767 21.8238 12.8662 14.0672 12.8662ZM8.92058 26.8477C6.83949 26.8477 5.14627 25.1544 5.14627 23.0734C5.14627 20.9923 6.83949 19.299 8.92058 19.299C11.002 19.299 12.6949 20.9923 12.6949 23.0734C12.6949 25.1544 11.002 26.8477 8.92058 26.8477Z" fill="#E3FF04"/>
<path d="M33.2956 13.6399C32.6572 14.562 31.5921 15.1664 30.3856 15.1664C28.4315 15.1664 26.8475 13.5823 26.8475 11.6282V6.99088C26.8475 3.12367 23.7178 0 19.8569 0C16.1317 0 13.0784 2.92848 12.877 6.60394H15.2859C15.4829 4.25415 17.457 2.40234 19.8569 2.40234C22.395 2.40234 24.4451 4.45685 24.4451 6.99088V11.6282C24.4451 14.9089 27.1049 17.5687 30.3856 17.5687C32.7883 17.5687 34.8565 16.1414 35.7921 14.0891C35.5744 14.1307 35.3514 14.1526 35.1249 14.1526C34.4693 14.1526 33.8412 13.9736 33.2956 13.6399Z" fill="#E3FF04"/>
</g>
<defs>
<clipPath id="clip0_69_308">
<rect width="41" height="41" fill="white"/>
</clipPath>
</defs>
</svg>
