<svg width="41" height="41" viewBox="0 0 41 41" fill="none" xmlns="http://www.w3.org/2000/svg">
<g clip-path="url(#clip0_69_272)">
<path d="M29.5062 35.8267H26.7798V34.6255H14.2201V35.8267H11.4937C10.8305 35.8267 10.2925 36.3647 10.2925 37.0278C10.2925 37.6913 10.8305 38.229 11.4937 38.229H29.5062C30.1694 38.229 30.7074 37.6913 30.7074 37.0278C30.7074 36.3647 30.1694 35.8267 29.5062 35.8267Z" fill="#E3FF04"/>
<path d="M3.77411 32.2234H37.2255C38.9556 32.2234 40.4086 31.0629 40.8565 29.4795H0.143066C0.591316 31.0648 2.0468 32.2234 3.77411 32.2234Z" fill="#E3FF04"/>
<path d="M21.6675 11.8145V14.3823H24.2578C23.8662 13.1601 22.8943 12.1951 21.6675 11.8145Z" fill="#E3FF04"/>
<path d="M16.7422 14.3824H19.265V11.8374C18.07 12.2322 17.1266 13.1828 16.7422 14.3824Z" fill="#E3FF04"/>
<path d="M21.6675 19.3522C22.8943 18.9715 23.8662 18.0065 24.2578 16.7847H21.6675V19.3522Z" fill="#E3FF04"/>
<path d="M37.2257 2.80273H3.77431C1.68633 2.80273 0 4.49282 0 6.57704V27.077H41V6.57704C41 4.48907 39.3099 2.80273 37.2257 2.80273ZM7.63401 23.2173H5.06087C4.39742 23.2173 3.8597 22.6796 3.8597 22.0162C3.8597 21.3527 4.39742 20.815 5.06087 20.815H7.63401C8.29747 20.815 8.83518 21.3527 8.83518 22.0162C8.83518 22.6796 8.29747 23.2173 7.63401 23.2173ZM11.4937 9.06478H5.06087C4.39742 9.06478 3.8597 8.52707 3.8597 7.86361C3.8597 7.20015 4.39742 6.66244 5.06087 6.66244H11.4937C12.1572 6.66244 12.6949 7.20015 12.6949 7.86361C12.6949 8.52707 12.1572 9.06478 11.4937 9.06478ZM26.9328 16.7845H26.732C26.2415 19.3339 24.2214 21.3443 21.6674 21.8213V22.0162C21.6674 22.6796 21.1294 23.2173 20.4662 23.2173C19.8028 23.2173 19.265 22.6796 19.265 22.0162V21.8091C16.7426 21.3095 14.7541 19.3113 14.268 16.7842H13.9993C13.3358 16.7842 12.7981 16.2465 12.7981 15.583C12.7981 14.9199 13.3358 14.3818 13.9993 14.3818H14.268C14.7541 11.855 16.7426 9.8568 19.265 9.35725V9.15018C19.265 8.48672 19.8028 7.94901 20.4662 7.94901C21.1294 7.94901 21.6674 8.48672 21.6674 9.15018V9.34505C24.2214 9.82177 26.2415 11.8325 26.732 14.3818H26.9328C27.5963 14.3818 28.134 14.9196 28.134 15.583C28.134 16.2465 27.5963 16.7845 26.9328 16.7845ZM29.4206 9.15018C29.4206 9.81364 28.8829 10.3513 28.2194 10.3513C27.5563 10.3513 27.0182 9.81364 27.0182 9.15018V7.86361C27.0182 7.20015 27.5563 6.66244 28.2194 6.66244C28.8829 6.66244 29.4206 7.20015 29.4206 7.86361V9.15018ZM30.8783 9.15018V7.86361C30.8783 7.20015 31.416 6.66244 32.0794 6.66244C32.7426 6.66244 33.2806 7.20015 33.2806 7.86361V9.15018C33.2806 9.81364 32.7426 10.3513 32.0794 10.3513C31.416 10.3513 30.8783 9.81364 30.8783 9.15018ZM35.9391 23.2173H33.366C32.7025 23.2173 32.1648 22.6796 32.1648 22.0162C32.1648 21.3527 32.7025 20.815 33.366 20.815H35.9391C36.6026 20.815 37.1403 21.3527 37.1403 22.0162C37.1403 22.6796 36.6026 23.2173 35.9391 23.2173ZM37.1403 9.15018C37.1403 9.81364 36.6026 10.3513 35.9391 10.3513C35.2757 10.3513 34.738 9.81364 34.738 9.15018V7.86361C34.738 7.20015 35.2757 6.66244 35.9391 6.66244C36.6026 6.66244 37.1403 7.20015 37.1403 7.86361V9.15018Z" fill="#E3FF04"/>
<path d="M19.265 19.3293V16.7847H16.7422C17.1266 17.984 18.07 18.9346 19.265 19.3293Z" fill="#E3FF04"/>
</g>
<defs>
<clipPath id="clip0_69_272">
<rect width="41" height="41" fill="white"/>
</clipPath>
</defs>
</svg>
